<?xml version="1.0" encoding="utf-8"?>
<!-- Generator: Adobe Illustrator 27.0.0, SVG Export Plug-In . SVG Version: 6.00 Build 0)  -->
<svg version="1.1" id="Layer_1" xmlns="http://www.w3.org/2000/svg" xmlns:xlink="http://www.w3.org/1999/xlink" x="0px" y="0px"
	 viewBox="0 0 995 697.7" style="enable-background:new 0 0 995 697.7;" xml:space="preserve">
<style type="text/css">
	.st0{fill:#F2F2F2;}
	.st1{fill:#FFFFFF;}
	.st2{fill:#CCCCCC;}
	.st3{fill:#21D45F;}
	.st4{fill:#3F3D56;}
	.st5{fill:#FFB8B8;}
	.st6{fill:#2F2E41;}
	.st7{opacity:0.2;enable-background:new    ;}
	.st8{fill:#E6E6E6;}
	.st9{fill:#A0616A;}
	.st10{fill:#FF6584;}
</style>
<path class="st0" d="M812.7,437.5H171.9c-9.1,0-16.5-7.4-16.5-16.5V25.9c0-6.7,5.4-12.1,12.1-12.1h649.5c6.8,0,12.3,5.5,12.3,12.3
	V421C829.2,430.2,821.8,437.5,812.7,437.5z"/>
<path class="st1" d="M789.3,414.2H192.1c-8.8,0-15.9-6.7-15.9-14.9V55.2c0-6.1,5.3-11,11.8-11h605.3c6.6,0,12,5,12,11.2v343.9
	C805.2,407.5,798.1,414.2,789.3,414.2z"/>
<path class="st2" d="M829,25H155.1v-8.4c0-9.1,7.4-16.5,16.6-16.5h640.7c9.1,0,16.5,7.4,16.6,16.5V25z"/>
<circle class="st1" cx="185.2" cy="12.5" r="4.3"/>
<circle class="st1" cx="201.5" cy="12.5" r="4.3"/>
<circle class="st1" cx="217.7" cy="12.5" r="4.3"/>
<path class="st2" d="M723.6,356.5H260.7c-9.7,0-17.5-7.8-17.5-17.5V115.8c0-7.2,5.9-13.1,13.1-13.1h471.5c7.3,0,13.3,6,13.3,13.3
	V339C741.1,348.6,733.2,356.5,723.6,356.5z M256.3,104.7c-6.1,0-11.1,5-11.1,11.1V339c0,8.6,6.9,15.5,15.5,15.5h462.8
	c8.6,0,15.5-6.9,15.5-15.5V116c0-6.2-5.1-11.3-11.3-11.3H256.3z"/>
<path class="st0" d="M276.7,339h430.8c8.8,0,16-7.2,16-16V136.4c0-8.8-7.2-16-16-16H276.7c-8.8,0-16,7.2-16,16V323
	C260.7,331.8,267.9,339,276.7,339z"/>
<circle class="st2" cx="325.7" cy="165.7" r="9"/>
<circle class="st2" cx="325.7" cy="199.7" r="9"/>
<circle class="st2" cx="325.7" cy="233.7" r="9"/>
<circle class="st2" cx="325.7" cy="267.7" r="9"/>
<path class="st2" d="M666.7,166.7h-296c-0.6,0-1-0.4-1-1s0.4-1,1-1h296c0.6,0,1,0.4,1,1S667.2,166.7,666.7,166.7z"/>
<path class="st2" d="M666.7,200.7h-296c-0.6,0-1-0.4-1-1s0.4-1,1-1h296c0.6,0,1,0.4,1,1S667.2,200.7,666.7,200.7z"/>
<path class="st2" d="M666.7,234.7h-296c-0.6,0-1-0.4-1-1s0.4-1,1-1h296c0.6,0,1,0.4,1,1S667.2,234.7,666.7,234.7z"/>
<path class="st2" d="M666.7,268.7h-296c-0.6,0-1-0.4-1-1s0.4-1,1-1h296c0.6,0,1,0.4,1,1S667.2,268.7,666.7,268.7z"/>
<path class="st3" d="M426.7,302.7h-29c-2.8,0-5-2.2-5-5v-27c0-2.8,2.2-5,5-5h29c2.8,0,5,2.2,5,5v27
	C431.7,300.5,429.4,302.7,426.7,302.7z"/>
<path class="st3" d="M491.7,302.7h-29c-2.8,0-5-2.2-5-5v-61c0-2.8,2.2-5,5-5h29c2.8,0,5,2.2,5,5v61
	C496.7,300.5,494.4,302.7,491.7,302.7z"/>
<path class="st3" d="M557.7,302.7h-29c-2.8,0-5-2.2-5-5v-95c0-2.8,2.2-5,5-5h29c2.8,0,5,2.2,5,5v95
	C562.7,300.5,560.4,302.7,557.7,302.7z"/>
<path class="st3" d="M625.7,302.7h-29c-2.8,0-5-2.2-5-5v-128c0-2.8,2.2-5,5-5h29c2.8,0,5,2.2,5,5v128
	C630.7,300.5,628.4,302.7,625.7,302.7z"/>
<path class="st4" d="M666.7,302.7h-296c-0.6,0-1-0.4-1-1s0.4-1,1-1h296c0.6,0,1,0.4,1,1S667.2,302.7,666.7,302.7z"/>
<path class="st5" d="M796.7,489.2c3.1-4.6,9.3-5.9,13.9-2.8c0.5,0.3,1,0.7,1.4,1.1l31.8-16.4l-2,18.5l-29.9,12.7
	c-4.1,3.8-10.5,3.5-14.3-0.6C794.5,498.3,794.1,493.1,796.7,489.2z"/>
<path class="st4" d="M824,496.1c-0.7-0.6-1.3-1.3-1.5-2.2l-2.5-8.2c-0.6-1.8,0.1-3.8,1.6-4.9l25.7-19.4l27.9-51.7
	c4.9-6.3,14-7.5,20.3-2.6c6.3,4.9,7.5,14,2.6,20.3l0,0l-15.9,33.5c-4.8,10.2-13.1,18.2-23.5,22.7l-30.2,13.1c-1.2,0.5-2.5,0.5-3.7,0
	C824.6,496.5,824.3,496.3,824,496.1z"/>
<circle class="st5" cx="898.8" cy="363.5" r="24.6"/>
<polygon class="st5" points="888.8,685.7 876.6,685.7 870.7,638.4 888.8,638.4 "/>
<path class="st6" d="M867.8,682.2h23.6l0,0v14.9l0,0h-38.5l0,0l0,0C852.9,688.9,859.6,682.2,867.8,682.2z"/>
<polygon class="st5" points="928.8,685.7 916.6,685.7 910.7,638.4 928.8,638.5 "/>
<path class="st6" d="M907.8,682.2h23.6l0,0v14.9l0,0h-38.5l0,0l0,0C892.9,688.9,899.6,682.2,907.8,682.2L907.8,682.2z"/>
<path class="st6" d="M929.7,673.7l-14.4,0c-2,0-3.8-1.4-4.3-3.3l-20.7-76.7c-0.1-0.3-0.3-0.4-0.6-0.4c-0.2,0.1-0.4,0.3-0.4,0.5
	l4.2,72.7c0.1,2.5-1.8,4.6-4.2,4.8c-0.2,0-0.4,0-0.6,0l-16.1-1.3c-2.1-0.2-3.8-1.8-4.1-4l-14.7-152.7l5.7,3.4l53.3-9.1l21.5,161
	c0.3,2.5-1.4,4.7-3.9,5.1C930.1,673.7,929.9,673.7,929.7,673.7z"/>
<path class="st4" d="M871.5,529.4c-5.9,0-11.6-1.7-16.7-4.7c-1.6-0.9-2.4-2.8-2.1-4.6c1.9-11.5,11.7-70.4,20.6-102.5
	c3.6-13.1,11.7-20.1,23.9-20.9c17.9-1.2,33.7,12.8,35.4,31.2c2.9,32.4-8.9,78.6-14.2,96.9c-0.7,2.4-3.2,3.8-5.6,3.1
	c-0.6-0.2-1.1-0.4-1.5-0.8l-10.7-8.3c-1.4-1-3.3-1-4.5,0.2C887.2,526.9,878.6,529.4,871.5,529.4z"/>
<polygon class="st7" points="906.8,443.7 915.8,481.7 902.8,513.7 911.8,482.7 "/>
<path class="st6" d="M912.8,383.7c2.2,0,4.4-0.4,6.4-1.2c0.9-0.3,1.8-0.6,2.7-1c7.9-3,13.1-11.4,13.3-19.9s-4.2-16.6-10.7-22.1
	s-14.9-8.2-23.3-8.8c-9.1-0.7-19.3,1.6-24.4,9.2c-1.3,2-2.3,4.5-1.5,6.9c0.2,0.7,0.7,1.4,1.2,1.9c2.3,2,4.5,0.5,6.8,0.4
	c3.2-0.2,6,2.4,7,5.4s0.6,6.3-0.3,9.4c-0.6,1.8-1,3.8-1.2,5.7c-0.1,2,0.8,3.9,2.4,5.1c2,1.2,4.6,0.5,6.6-0.7s3.7-2.9,5.8-3.7
	s5-0.7,6.3,1.3c0.4,0.7,0.7,1.5,0.8,2.3C911.9,378.9,911.7,378.6,912.8,383.7L912.8,383.7z"/>
<path class="st8" d="M874.7,651.4l-153.8-53.6c-5.5-1.9-8.4-7.9-6.5-13.4l40-114.8c1.4-4,5.8-6.2,9.8-4.8l159,55.4
	c4.1,1.4,6.3,5.9,4.8,10l-39.9,114.6C886.2,650.4,880.2,653.3,874.7,651.4z"/>
<path class="st1" d="M734,591.3l134.5,46.8c5.3,1.9,11.2-1,13-6.3l32.3-92.7c1.9-5.3-1-11.2-6.3-13l0,0L773,479.3
	c-5.3-1.9-11.2,1-13,6.3l-32.3,92.7C725.9,583.6,728.7,589.4,734,591.3z"/>
<path class="st3" d="M767.8,526.2l-6.7-2.3c-0.8-0.3-1.1-1.1-0.9-1.8l2.3-6.7c0.3-0.8,1.1-1.1,1.8-0.9l6.7,2.3
	c0.8,0.3,1.1,1.1,0.9,1.8l-2.3,6.7C769.4,526,768.6,526.4,767.8,526.2z"/>
<path class="st4" d="M761.8,543.4l-6.7-2.3c-0.8-0.3-1.1-1.1-0.9-1.8l2.3-6.7c0.3-0.8,1.1-1.1,1.8-0.9l6.7,2.3
	c0.8,0.3,1.1,1.1,0.9,1.8l-2.3,6.7C763.4,543.3,762.6,543.7,761.8,543.4z"/>
<path class="st2" d="M755.8,560.7l-6.7-2.3c-0.8-0.3-1.1-1.1-0.9-1.8l2.3-6.7c0.3-0.8,1.1-1.1,1.8-0.9l6.7,2.3
	c0.8,0.3,1.1,1.1,0.9,1.8l-2.3,6.7C757.4,560.5,756.6,560.9,755.8,560.7z"/>
<path class="st2" d="M812.6,538l-32.1-11.2c-0.8-0.3-1.1-1.1-0.9-1.8c0.3-0.8,1.1-1.1,1.8-0.9l32.1,11.2c0.8,0.3,1.1,1.1,0.9,1.8
	C814.1,537.9,813.3,538.3,812.6,538z"/>
<path class="st2" d="M806.6,555.3l-32.1-11.2c-0.8-0.3-1.1-1.1-0.9-1.8s1.1-1.1,1.8-0.9l0,0l32.1,11.2c0.8,0.3,1.1,1.1,0.9,1.8
	S807.3,555.5,806.6,555.3z"/>
<path class="st2" d="M800.6,572.5l-32.1-11.2c-0.8-0.3-1.1-1.1-0.9-1.8s1.1-1.1,1.8-0.9l0,0l32.1,11.2c0.8,0.3,1.1,1.1,0.9,1.8
	S801.3,572.8,800.6,572.5z"/>
<path class="st3" d="M886,581.9c0.2-0.6,0.5-1.1,0.7-1.7c5.5-15.8-2.8-33-18.6-38.5L857.5,572L886,581.9z"/>
<path class="st4" d="M854.4,573.8l10.5-30.3c-15.8-5.5-33,2.8-38.5,18.6s2.8,33,18.6,38.5c15.1,5.3,31.7-2.1,37.8-16.9L854.4,573.8z
	"/>
<path class="st5" d="M892.1,530.4c-0.5-5.5,3.7-10.4,9.2-10.8c0.6,0,1.2,0,1.8,0L918,487l9.8,15.7l-15.6,28.4
	c-0.9,5.5-6.1,9.3-11.6,8.4C896,538.8,892.5,535,892.1,530.4L892.1,530.4z"/>
<path class="st4" d="M917.9,518.9c-0.9,0-1.8-0.3-2.6-0.8l-7-4.9c-1.6-1.1-2.3-3-1.8-4.9l8.3-31.2l-10-57.9c0-8,6.4-14.5,14.4-14.6
	s14.5,6.4,14.6,14.4l8.2,36.1c2.5,11,0.9,22.5-4.5,32.3l-15.7,28.9c-0.6,1.1-1.7,1.9-2.9,2.2C918.6,518.9,918.2,518.9,917.9,518.9z"
	/>
<path class="st2" d="M994,697.7H804c-0.6,0-1-0.4-1-1s0.4-1,1-1h190c0.6,0,1,0.4,1,1S994.6,697.7,994,697.7z"/>
<polygon class="st9" points="490.5,685.2 502.8,685.2 508.6,638 490.5,638 "/>
<path class="st6" d="M487.4,681.2l24.1,0h0c8.5,0,15.4,6.9,15.4,15.4c0,0,0,0,0,0v0.5l-39.5,0L487.4,681.2z"/>
<polygon class="st9" points="441.5,685.2 453.8,685.2 459.6,638 441.5,638 "/>
<path class="st6" d="M438.4,681.2l24.1,0h0c8.5,0,15.4,6.9,15.4,15.4c0,0,0,0,0,0v0.5l-39.5,0L438.4,681.2z"/>
<ellipse transform="matrix(0.1602 -0.9871 0.9871 0.1602 85.0269 766.5312)" class="st9" cx="493" cy="333.3" rx="24.6" ry="24.6"/>
<path class="st6" d="M509.5,675h-22.8c-2.5,0-4.5-2-4.5-4.5c0,0,0,0,0-0.1l1.3-108c0-0.8-0.7-1.5-1.5-1.5c-0.8,0-1.4,0.6-1.5,1.3
	l-13.2,108.8c-0.3,2.3-2.2,4-4.5,4h-23c-2.5,0-4.5-2-4.5-4.5c0-0.1,0-0.2,0-0.4l15.2-194.1l0.4,0l72.6-7.8L514,670.7
	C513.9,673.1,511.9,675,509.5,675z"/>
<path class="st4" d="M451.5,488c-2.4,0-4.4-1.9-4.5-4.4c-0.4-12.3-1.1-54.7,6.8-85.9c4.4-17.5,19.8-30,37.8-30.8l0,0
	c17.7-1,34.1,9.5,40.6,26c13.3,33.7,25.8,75.2,10.2,81.8c-20.5,8.5-74.5,12.3-90.6,13.3C451.7,488,451.6,488,451.5,488z"/>
<path class="st9" d="M545.3,308.5c0.4,0.4,0.8,0.8,1.2,1.1l-2.6,49.5l-10.7,5.5l6.2,17.3l19.9-7.9c3.3-1.3,5.4-4.6,5-8.2l-5.2-56.2
	c4.6-3.5,5.6-10,2.1-14.7c-3.5-4.6-10-5.6-14.7-2.1c-4.6,3.5-5.6,10-2.1,14.7C544.8,307.8,545,308.2,545.3,308.5L545.3,308.5z"/>
<path class="st4" d="M544.2,360.9l7.5,21.4c0.8,2.3-0.4,4.9-2.8,5.7c-0.2,0.1-0.4,0.1-0.6,0.2l-22.2,4.3c-6.5,2.3-13.6-1.2-15.9-7.7
	c-2.2-6.5,1.2-13.6,7.7-15.9l20-10.5c2.2-1.2,4.9-0.3,6.1,1.9C544.1,360.5,544.1,360.7,544.2,360.9L544.2,360.9z"/>
<path class="st9" d="M439,308.5c-0.4,0.4-0.8,0.8-1.2,1.1l2.6,49.5l10.7,5.5l-6.2,17.3l-19.9-7.9c-3.3-1.3-5.4-4.6-5-8.2l5.2-56.2
	c-4.6-3.5-5.6-10-2.1-14.7c3.5-4.6,10-5.6,14.7-2.1c4.6,3.5,5.6,10,2.1,14.7C439.5,307.8,439.3,308.2,439,308.5L439,308.5z"/>
<path class="st4" d="M442.7,358.2c1.2-0.5,2.6-0.4,3.7,0.2l20,10.5c6.5,2.3,9.9,9.4,7.6,15.9c-2.3,6.5-9.4,9.9-15.9,7.7l-22.2-4.3
	c-2.4-0.5-4-2.8-3.6-5.3c0-0.2,0.1-0.4,0.2-0.6l7.5-21.4C440.5,359.7,441.5,358.7,442.7,358.2z"/>
<path class="st6" d="M502.5,337.5c-0.3-6.4,3.3-12.4,9-15.2c7.5-3.9,12.2-12.1,10.1-19.6c-2.6-9.6-15.7-15.8-26.3-12.5
	c-2.9,1-5.6,2.3-8.3,3.8l-6.9,3.7c-3,1.5-5.8,3.2-8.5,5c-8.3,6.1-12.6,16.3-11.3,26.5c1.4,9.8,7.8,18.7,16.5,24.9
	c3.3,2.5,7.2,4.2,11.3,5c4.2,0.7,8.9-0.1,11.9-2.7c4.8-4.1,4.3-10.9,2.7-16.6C502.7,339.1,502.6,338.3,502.5,337.5z"/>
<path class="st2" d="M586,697.7H396c-0.6,0-1-0.4-1-1s0.4-1,1-1h190c0.6,0,1,0.4,1,1S586.6,697.7,586,697.7z"/>
<path class="st8" d="M275.9,515.3l-156.8,64.3c-5.6,2.3-12-0.4-14.3-6l-48-117c-1.7-4.1,0.3-8.8,4.4-10.5l162.1-66.5
	c4.2-1.7,9,0.3,10.7,4.5l47.9,116.9C284.2,506.5,281.5,512.9,275.9,515.3z"/>
<path class="st1" d="M124.8,565.4l137.1-56.2c5.4-2.2,8-8.4,5.8-13.9l0,0L229,400.8c-2.2-5.4-8.4-8-13.9-5.8l0,0L78,451.2
	c-5.4,2.2-8,8.4-5.8,13.9l0,0l38.8,94.5C113.2,565,119.4,567.6,124.8,565.4z"/>
<rect x="226.2" y="427" transform="matrix(0.9252 -0.3795 0.3795 0.9252 -145.1151 118.2177)" class="st8" width="2.2" height="0.4"/>
<path class="st8" d="M222.2,429.4l-4.1,1.7l-0.1-0.3l4.1-1.7L222.2,429.4z M214.1,432.7l-4.1,1.7l-0.1-0.3l4.1-1.7L214.1,432.7z
	 M206,436.1l-4.1,1.7l-0.1-0.3l4.1-1.7L206,436.1z M197.8,439.4l-4.1,1.7l-0.1-0.3l4.1-1.7L197.8,439.4z M189.7,442.8l-4.1,1.7
	l-0.1-0.3l4.1-1.7L189.7,442.8z M181.5,446.1l-4.1,1.7l-0.1-0.3l4.1-1.7L181.5,446.1z M173.4,449.4l-4.1,1.7l-0.1-0.3l4.1-1.7
	L173.4,449.4z M165.2,452.8l-4.1,1.7l-0.1-0.3l4.1-1.7L165.2,452.8z M157.1,456.1l-4.1,1.7l-0.1-0.3l4.1-1.7L157.1,456.1z
	 M149,459.5l-4.1,1.7l-0.1-0.3l4.1-1.7L149,459.5z M140.8,462.8l-4.1,1.7l-0.1-0.3l4.1-1.7L140.8,462.8z M132.7,466.1l-4.1,1.7
	l-0.1-0.3l4.1-1.7L132.7,466.1z M124.5,469.5l-4.1,1.7l-0.1-0.3l4.1-1.7L124.5,469.5z M116.4,472.8l-4.1,1.7l-0.1-0.3l4.1-1.7
	L116.4,472.8z M108.2,476.2l-4.1,1.7l-0.1-0.3l4.1-1.7L108.2,476.2z M100.1,479.5l-4.1,1.7l-0.1-0.3l4.1-1.7L100.1,479.5z"/>
<rect x="89.8" y="482.9" transform="matrix(0.9252 -0.3795 0.3795 0.9252 -176.5566 70.6402)" class="st8" width="2.2" height="0.4"/>
<rect x="172.8" y="485.3" transform="matrix(0.9252 -0.3795 0.3795 0.9252 -171.2695 102.3342)" class="st8" width="2.2" height="0.4"/>
<path class="st8" d="M168.9,487.8l-4,1.6l-0.1-0.3l4-1.6L168.9,487.8z M160.9,491l-4,1.6l-0.1-0.3l4-1.6L160.9,491z M152.9,494.3
	l-4,1.6l-0.1-0.3l4-1.6L152.9,494.3z M144.9,497.6l-4,1.6l-0.1-0.3l4-1.6L144.9,497.6z M136.9,500.9l-4,1.6l-0.1-0.3l4-1.6
	L136.9,500.9z M128.8,504.2l-4,1.6l-0.1-0.3l4-1.6L128.8,504.2z M120.8,507.5l-4,1.6l-0.1-0.3l4-1.6L120.8,507.5z M112.8,510.8
	l-4,1.6l-0.1-0.3l4-1.6L112.8,510.8z"/>
<rect x="102.6" y="514.1" transform="matrix(0.9252 -0.3795 0.3795 0.9252 -187.4549 77.8423)" class="st8" width="2.2" height="0.4"/>
<rect x="139.6" y="516.3" transform="matrix(0.9252 -0.3795 0.3795 0.9252 -185.4864 92.0309)" class="st8" width="2.2" height="0.4"/>
<path class="st8" d="M135.6,518.7l-4.1,1.7l-0.1-0.3l4.1-1.7L135.6,518.7z M127.3,522.1l-4.1,1.7l-0.1-0.3l4.1-1.7L127.3,522.1z
	 M119.1,525.5l-4.1,1.7l-0.1-0.3l4.1-1.7L119.1,525.5z"/>
<rect x="108.7" y="528.9" transform="matrix(0.9252 -0.3795 0.3795 0.9252 -192.6111 81.2498)" class="st8" width="2.2" height="0.4"/>
<rect x="149.9" y="541.5" transform="matrix(0.9252 -0.3795 0.3795 0.9252 -194.2856 97.8458)" class="st8" width="2.2" height="0.4"/>
<path class="st8" d="M145.9,543.9l-4.1,1.7l-0.1-0.3l4.1-1.7L145.9,543.9z M137.7,547.3l-4.1,1.7l-0.1-0.3l4.1-1.7L137.7,547.3z
	 M129.4,550.7l-4.1,1.7l-0.1-0.3l4.1-1.7L129.4,550.7z"/>
<rect x="119" y="554.2" transform="matrix(0.9252 -0.3795 0.3795 0.9252 -201.4103 87.0647)" class="st8" width="2.2" height="0.4"/>
<path class="st3" d="M130.6,550.5l116.2-47.7c5.9-2.4,8.7-9.1,6.3-15l-23.5-57.2l-0.2,0.1l-28.5,68.2l-21.1-8.8
	c-0.8-0.3-1.7-0.3-2.4,0.2c-0.6,0.3-1,0.8-1.2,1.4l-14.9,35.7l-15.5-6.5c-1.4-0.6-3,0.1-3.6,1.5c0,0,0,0,0,0
	C142,522.7,132.4,546.1,130.6,550.5z"/>
<path class="st4" d="M130.3,551.1l-0.3-0.1l12-28.6c0.7-1.6,2.5-2.3,4-1.7l15.2,6.3l14.9-35.5c0.7-1.6,2.5-2.3,4-1.7l20.8,8.7
	l28.7-68.5l0.3,0.1L201,499l-21.2-8.9c-1.4-0.6-3,0.1-3.6,1.5c0,0,0,0,0,0l-15,35.9l-15.5-6.5c-1.4-0.6-3,0.1-3.6,1.5L130.3,551.1z"
	/>
<circle class="st4" cx="141.7" cy="516" r="2.5"/>
<circle class="st4" cx="174.9" cy="485.1" r="2.5"/>
<circle class="st4" cx="226.7" cy="426.6" r="2.5"/>
<path class="st5" d="M84.4,513.1c5-2.5,7-8.5,4.5-13.5c-0.3-0.5-0.6-1-0.9-1.5l7.5-73.8H79.2l-6,72.1c-4.3,3.6-4.8,10-1.2,14.3
	C75.1,514.2,80.2,515.3,84.4,513.1L84.4,513.1z"/>
<circle class="st5" cx="99.4" cy="360.5" r="23.1"/>
<path class="st10" d="M103.7,467.3c-1.9,0-3.6-1.3-4.1-3.1c-1.8-6.7-6.7-18.1-14.3-33.8c-6.8-13.9-1-30.6,12.9-37.4
	c1-0.5,1.9-0.9,3-1.2l0,0c14.6-5.1,30.5,2.5,35.7,17.1c0.1,0.3,0.2,0.5,0.3,0.8c5.9,18.6,5.6,38.4,5.2,46.1
	c-0.1,1.9-1.5,3.5-3.3,3.9l-34.4,7.5C104.3,467.2,104,467.3,103.7,467.3z"/>
<polygon class="st5" points="137.1,686.4 148.6,686.4 154.1,642 137.1,642 "/>
<path class="st6" d="M170.8,697.1l-36.2,0l0,0l0-14l0,0l22.2,0C164.6,683.1,170.8,689.4,170.8,697.1L170.8,697.1L170.8,697.1
	L170.8,697.1z"/>
<polygon class="st5" points="21.9,671.5 32,677 58.2,640.7 43.3,632.6 "/>
<path class="st6" d="M46.3,697.1l-31.7-17.4l0,0l6.7-12.3l0,0l19.5,10.7C47.5,681.8,50,690.4,46.3,697.1L46.3,697.1L46.3,697.1z"/>
<path class="st6" d="M136.5,661.8c-2.1,0-3.9-1.6-4.2-3.7l-14.4-111c-0.2-1.3-1.3-2.2-2.6-2c-0.7,0.1-1.4,0.5-1.8,1.2l-60,108.9
	c-1,1.8-3.2,2.7-5.2,1.9l-13.1-5c-2.2-0.8-3.3-3.3-2.4-5.5c0,0,0-0.1,0-0.1l41.6-102.2c0.1-0.3,0.2-0.5,0.2-0.8
	c5.6-43.6,20-65.8,24.2-71.5c0.6-0.9,0.8-2,0.5-3l-0.6-1.8c-0.5-1.4-0.2-3,0.8-4.1c15.3-17.5,42.1-7.9,42.4-7.8l0.1,0l0.1,0.1
	c30,41.1,18.9,174.7,16.4,201.1c-0.2,2-1.8,3.7-3.9,3.8l-17.7,1.4C136.8,661.8,136.7,661.8,136.5,661.8z"/>
<path class="st5" d="M189.1,387.3c-0.1,0.5-0.2,1-0.2,1.5l-40.4,23.3l-9.8-5.6l-10.5,13.7l16.4,11.7c2.7,1.9,6.4,1.8,9-0.2
	l41.6-32.8c5.1,1.9,10.8-0.7,12.7-5.8c1.9-5.1-0.7-10.8-5.8-12.7c-5.1-1.9-10.8,0.7-12.7,5.8C189.3,386.5,189.2,386.9,189.1,387.3
	L189.1,387.3z"/>
<path class="st10" d="M147.2,413.2l-13,16.9c-1.4,1.8-4.1,2.2-5.9,0.8c-0.2-0.1-0.3-0.3-0.5-0.4L113,415.1c-5.1-4-6-11.4-2-16.5
	c4-5.1,11.3-6,16.4-2.1l18.5,10.4c2,1.1,2.8,3.7,1.6,5.8C147.4,412.9,147.3,413,147.2,413.2L147.2,413.2z"/>
<path class="st10" d="M96.6,442.6l-21-3.8c-2.3-0.4-3.8-2.6-3.4-4.9c0-0.2,0.1-0.4,0.2-0.6l6.8-20.2c1.2-6.4,7.3-10.6,13.7-9.4
	c6.4,1.2,10.6,7.3,9.4,13.6l-0.7,21.2c-0.1,2.3-2,4.2-4.4,4.1C97,442.6,96.8,442.6,96.6,442.6L96.6,442.6z"/>
<path class="st6" d="M103,355.2c5.9,4.1,13.7,8.2,19.8,3.9c3.9-3,5.4-8.1,3.6-12.7c-2.9-8.3-10.9-11.9-18.5-14.7
	c-9.9-3.6-20.7-6.5-30.9-3.9s-19.3,12.5-17.4,22.9c1.5,8.4,9.4,15.3,8.2,23.7c-1.1,8.5-10.7,12.9-19.1,14.4s-17.8,2-23.9,8
	c-7.7,7.7-5.8,21.5,1.5,29.6c7.3,8.1,18.2,11.8,28.8,14.3c14.1,3.3,29.3,5.1,42.6-0.4s23.7-20.3,19.9-34.3
	c-1.6-5.9-5.5-10.8-9.2-15.7s-7.5-9.9-8.9-15.8c-1.2-4.9-0.3-10.7,3-14.4C103.8,358.8,104,356.8,103,355.2L103,355.2z"/>
<path class="st2" d="M191,697.7H1c-0.6,0-1-0.4-1-1s0.4-1,1-1h190c0.6,0,1,0.4,1,1S191.6,697.7,191,697.7z"/>
<g>
	<path class="st4" d="M911.5,186.6c-0.1,45.3-36.9,81.9-82.1,81.8c-45.3-0.1-81.9-36.9-81.8-82.1c0.1-45.3,36.9-81.9,82.1-81.8
		c34.1,0.1,64.7,21.3,76.6,53.3c0.2,0.5,0.4,1,0.5,1.4v0c0.8,2.1,1.4,4.3,2,6.5C910.6,172.6,911.5,179.6,911.5,186.6z"/>
	<path class="st3" d="M820,131c-7.5-4.1-16.5-4.4-24.3-1c-3.4,1.5-7,4.1-8.1,8.9c4.6-2.7,10.5,1.6,11.7,8.4l-0.3,0.1
		c-0.6,4.8,0.8,9.9,3.5,12.9c0.4-2.7,2-5.1,4.3-6.4c2-1.3,4.2-2.2,5.7-4.5c1.8-2.7,2.2-6.5,3-10.1C816.1,135.7,817.5,131.9,820,131z
		"/>
	<path class="st3" d="M794.3,171.4c-1.3,1.9-3,3.1-4.5,4.6c-1.8,1.6-2.9,3.8-3.3,6.1c-0.2,1.7,0.1,3.3,0.1,5c0,1.7-0.6,3.6-1.7,4
		c-1.8,0.7-3.2-2.7-5-2.9c-1.5-0.2-2.8,2.1-2.4,4.1c0.4,2,2.4,2.9,3.6,1.6c1,1.7,0.3,4.9-1.3,5.5c-0.2,1.1-0.3,2.2-0.5,3.3
		c-4-2.8-7.9-5.6-11.3-9.6c-3.7-4.5-6.1-9.9-6.7-15.7c-0.4-4.7,0.2-10-1.9-13.6c-1.7-2.9-4.6-3.5-7.3-3.3c-0.5,0-1,0.1-1.4,0.1
		c1.6-4.7,3.5-9.2,5.9-13.5c0.5-0.2,1-0.5,1.5-0.9c2.5-2.1,3.5-6.3,5.5-9.2c0.1-0.2,0.3-0.4,0.4-0.6c2-2.7,4.8-4,7.4-5.3
		c5.8-2.8,11.9-5.7,18-5.3l-1.8,0.2c-2,5.7-4.1,11.5-6.2,17.2c-0.3,0.9-0.6,1.8-0.9,2.6c-1.2,3.3-2.4,6.7-2.2,10.4
		c0.1,2.2,0.9,4.5,2.3,5.2c1.3,0.7,2.8-0.2,4.1-1c0.5-0.3,1.1-0.7,1.6-1.1c2-1.3,4.1-2.6,6.2-1.7c1.9,0.8,3.3,3.3,3.6,6.1
		C796.4,166.4,795.7,169.1,794.3,171.4z"/>
	<path class="st3" d="M805.9,210.6c-5.7-3.5-11.4-7-17.2-10.6l0.1-0.3c-3.6,1.4-5,7.7-4.4,12.8c0.6,5.2,2.6,9.8,3.6,14.8
		c1.4,6.9,0.8,14-1.5,20.6c7.5-8.4,14.2-17.6,19.9-27.4c0.8-1.2,1.4-2.6,1.8-4c0.4-1.5,0.3-3.1-0.4-4.5
		C807.3,211.5,806.7,211,805.9,210.6z"/>
	<path class="st3" d="M783.4,146.5c-0.7,1.4-0.8,3.1-0.3,4.6c0.6,1.2,1.6,2.2,2.8,2.6l3.2,1.6c1.1,0.5,2.2,1,3.3,0.6
		c1.3-0.5,2.2-2.5,2-4.4c-0.2-2-1.5-3.4-2.7-4.6c-1.6-1.6-3.3-3.3-4.9-4.9l-0.9,1.1C784.8,144.1,784,145.3,783.4,146.5z"/>
	<path class="st3" d="M894.6,167.9c1.4,0.3,2.8,0.7,4.3,1c-0.2,4.8-2.6,9.2-5.8,10.9c-1.3,0.7-2.8,0.9-3.9,2.2c-1,1.1-1.5,2.9-2,4.6
		c-0.8,3-1.6,5.9-2.4,8.9c-0.9,3.2-2,6.7-4.3,7.9c-1.9,1-4.2-0.2-5.7-2.2c-1.5-2-2.4-4.7-3.3-7.4c0.1,2.9-1.3,5.7-3.2,6.7
		c-1.9,1-4.2,0.1-5.5-2.1c-0.9-1.6-1.3-3.7-2.2-5.4c-0.9-1.6-2.8-2.6-3.8-1c-0.6,1-0.6,2.6-0.9,3.9c-0.3,1.8-1.7,3.1-3.5,3.4
		c-1.6,0-3.1-0.7-4.2-1.9c-2.8-2.9-4.6-6.6-5.2-10.5c-0.4-1.9-0.3-3.9,0.1-5.8c0.6-1.8,1.9-3.2,3.3-2.8c0.9-1.9-0.9-4.4-2.4-4.2
		c-1.6,0.2-2.8,1.9-4.1,3.2c-1.3,1.3-3.1,2.3-4.4,1c0.1,1-0.7,1.8-1.7,1.9c0,0-0.1,0-0.1,0c-0.9-0.2-1.7-0.7-2.4-1.3
		c-3-1.9-6.8-0.6-8.9,2.9c1.3-5.7,3.3-12.2,7.4-13.5c1.7-0.5,3.5-0.1,5.1-1c2.8-1.7,3.4-8,0.9-10.6c0.3,2.5,0.2,5.3-1.1,7
		c-1.3,1.7-4,0.6-3.9-1.9c-0.1,0.9-0.9,1.6-1.8,1.5c-0.5-0.1-1-0.4-1.3-0.8c-0.9-1.3-0.8-3.5-0.2-5.1c0.6-1.4,1.5-2.7,2.7-3.8
		c2.2-2.3,4.4-4.7,6.9-6.2c2.5-1.5,5.4-2,8-0.5c1.3,0.8,2.5,2.1,3.9,2.7c1.3,0.8,3.1,0.4,3.9-0.9v0l0,0c0,0,0,0,0-0.1
		c1-1.8,0.5-4.4,0.9-6.6c0.7-3.9,4.6-5.8,6.8-3.2c-1.6-0.4-3.3,1.5-3.5,3.8c-0.2,2.3,1,4.7,2.5,5.4c2.7,1.2,5.2-1.8,7.2-4.5
		c2.1-2.9,4.2-5.7,6.3-8.6c0.3-0.5,0.7-0.9,1.1-1.4c1.4-1.3,3.5-1.4,4.9-0.1c2.1,1.7,3.1,5.3,4.9,7.7c2.5,3.5,6.3,4.4,9.8,5.1
		c2.6,0.5,5.2,1,7.9,1.5c1.7,3.3,3.3,6.6,4.6,10.1C901.5,160,897.4,163.5,894.6,167.9z"/>
	<path class="st3" d="M903,223.1c-2,4-4.2,7.8-6.8,11.4c-1.7-0.7-3.4,0.6-5,1.7c-1.6,1.2-3.6,2.4-5.2,1.3c-1.7-1.2-2.2-4.4-1.7-7
		c0.6-2.4,1.7-4.6,3.2-6.5c1.4-2.1,2.8-4.2,4.8-5c1.9-0.8,4.4,0.3,4.9,3.1l1.4,0c-0.8-1-0.4-3.2,0.7-3.6c1.2-0.4,2.2,1.2,2.9,2.6
		C902.4,221.8,902.8,222.4,903,223.1z"/>
	<path class="st3" d="M851.1,203.7c-2.9,0.2-5.2-3.4-6.8-6.9s-2.9-7.6-5.6-9.4c-1.5-1-3.2-1.2-4.9-1.7c-1.9-0.5-3.4-1.8-4.1-3.6
		l-1.9-0.7c-2.6,1.3-5,3-7,5c-2.4,2.5-3.8,5.7-4.2,9.2c-0.4,3.7,1,7.8,3.4,9.2c1.9,1.1,4.2,0.4,6.1,1.4c2.4,1.3,3.9,4.9,4.4,8.5
		c0.5,3.6,0.4,7.4,0.8,11c0.4,3.6,1.5,7.4,3.7,9.3c2.8,2.3,6.9,0.4,8.2-3.9c0.6-2.1,0.6-4.4,1.1-6.6c0.8-3.8,3-6.7,4.7-9.8
		C850.9,211.6,852.2,207.4,851.1,203.7z"/>
	<path class="st3" d="M822.2,166.2c0.3,0.3,0.5,0.5,0.8,0.8c0.5,0.9,0.5,1.9,0,2.7c0.7,0,1.4-0.4,1.8-0.9c0.5-0.6,1-1.3,1.4-2
		c0.4-0.5,0.5-1.1,0.4-1.7c-0.1-0.4-0.5-0.6-0.7-0.9c-0.3-0.6-0.5-1.2-0.6-1.9c-0.3-1.2-1.2-2.2-2.4-2.6l0.1,0
		c-0.5,0.3-0.8,0.9-0.6,1.5c0.1,0.6,0.5,1,0.4,1.6c-0.1,0.8-0.9,1.2-0.9,2.1C821.8,165.5,822,165.9,822.2,166.2z"/>
	<path class="st3" d="M817.2,151.9L817.2,151.9c0.1-0.1,0.2-0.2,0.3-0.3L817.2,151.9z"/>
	<path class="st3" d="M818.1,155.9c0.7-0.6,1-1.6,0.8-2.5c-0.2-1-1-1.6-1.7-1.4c-0.4,0.4-1,0.6-1.6,0.5c-0.4-0.1-0.9-0.4-1.3-0.1
		c-0.2,0.2-0.4,0.5-0.4,0.8c-0.1,0.4-0.3,0.8-0.4,1.3c-0.1,0.2-0.1,0.3,0,0.5c0.1,0.1,0.2,0.2,0.3,0.2l2.5,0.7
		C816.9,156.2,817.5,156.2,818.1,155.9z"/>
	<path class="st3" d="M880.3,210.3c-0.4-0.6-0.8-1.2-1.1-1.9c-0.4-0.7-0.9-1.4-1.5-1.9c-0.6-0.5-1.4-0.4-1.9,0.2l0,0l0,0l0,0.4
		c1,1.1,1.7,2.4,2,3.9c0.1,0.6,0.1,1.3,0.1,1.9c0,0.6,0.3,1.2,0.7,1.6c0.6,0.4,1.3-0.2,1.7-0.9c0.4-0.6,0.6-1.3,0.5-2
		C880.8,211.1,880.6,210.7,880.3,210.3z"/>
	<path class="st3" d="M886.3,211.1c0.1-0.6,0-1.2-0.1-1.7c0-0.8,0.2-1.5,0.6-2.2c0.4-0.6,0.7-1.3,0.9-2c0.1-0.3,0.1-0.7,0-1
		c-0.1-0.3-0.4-0.4-0.6-0.2l0.4,0.2c-0.5-0.1-1-0.1-1.5,0.1c-0.6,0.2-1,0.7-1.2,1.3c-0.1,0.5-0.2,0.9-0.3,1.3
		c-0.2,0.5-0.7,0.6-0.9,1c-0.4,0.7-0.4,1.6,0,2.3c0.3,0.6,0.9,1,1.5,1.2C885.5,211.7,886.1,211.7,886.3,211.1z"/>
	<path class="st3" d="M896.9,214.3c0.2,0.4,0.4,0.8,0.7,1.2c0.5,0.5,1.2,0.2,1.8,0.1c1.1-0.2,2.3,0.3,3,1.2
		c-0.5-2.4-2.1-4.5-4.4-5.5c-1.4-0.5-3-0.7-4.5-0.7l-0.3,0.1C893.9,212.6,896,212.6,896.9,214.3z"/>
	<path class="st3" d="M851.9,218.3L851.9,218.3l0.1-0.1L851.9,218.3z"/>
	<path class="st3" d="M850.3,221.4c-0.4,0.6-0.7,1.3-0.9,2c-0.3,1.1-0.6,2.2-0.7,3.4c-0.1,0.7-0.1,1.5,0.3,1.8
		c0.2,0.2,0.6,0.1,0.8-0.1c0.2-0.2,0.4-0.5,0.6-0.8c0.8-1.4,1.4-2.9,1.9-4.4c0.5-1.6,0.3-3.4-0.3-5
		C851.3,219.3,850.8,220.3,850.3,221.4z"/>
	<path class="st3" d="M834.7,138.2c0.5,0.5,1.3,0.7,2,0.4c0.7-0.3,1.3-0.7,1.9-1.2c0.5-0.3,0.8-0.8,1.1-1.2c0.3-0.6,0.4-1.3,0.2-1.9
		c-0.3-0.6-0.8-1.1-1.5-1.2c-0.9-0.3-1.8-0.5-2.7-0.8l0.7-0.6c-0.7-0.4-1.4,0.3-1.9,1.2c-0.3,0.5-0.5,1.1-0.6,1.7
		C833.6,135.8,833.9,137.1,834.7,138.2z"/>
	<path class="st3" d="M850.8,132.7c0.5,0.6,1.4,0.7,2.1,0.2c0.5-0.4,0.9-1,0.9-1.6c0.1-0.7-0.3-1.5-0.8-1.6l0.1-0.7
		c-1-0.2-2.2-0.2-2.7,1C850,130.9,850.2,132,850.8,132.7z"/>
	<ellipse class="st8" cx="784.3" cy="173" rx="6.1" ry="8.2"/>
	
		<ellipse transform="matrix(0.9663 -0.2573 0.2573 0.9663 -41.6235 239.6852)" class="st8" cx="894.9" cy="278.9" rx="5.5" ry="3.8"/>
	
		<ellipse transform="matrix(0.9663 -0.2573 0.2573 0.9663 -42.9956 230.5245)" class="st8" cx="859.2" cy="279.5" rx="5.5" ry="3.8"/>
	
		<ellipse transform="matrix(0.9663 -0.2573 0.2573 0.9663 -33.7676 240.3168)" class="st8" cx="901.2" cy="249.2" rx="5.5" ry="3.8"/>
	<ellipse transform="matrix(0.9924 -0.123 0.123 0.9924 -22.2025 114.0497)" class="st8" cx="912.3" cy="236.8" rx="2.4" ry="3.5"/>
	<ellipse transform="matrix(0.9924 -0.123 0.123 0.9924 -19.4256 114.2074)" class="st8" cx="915" cy="214.4" rx="2.4" ry="3.5"/>
	<ellipse transform="matrix(0.9924 -0.123 0.123 0.9924 -24.9983 110.1077)" class="st8" cx="879" cy="257.5" rx="2.4" ry="3.5"/>
	<ellipse transform="matrix(0.9924 -0.123 0.123 0.9924 -25.6648 112.3777)" class="st8" cx="897" cy="264" rx="2.4" ry="3.5"/>
	<ellipse transform="matrix(0.9924 -0.123 0.123 0.9924 -28.1076 109.8223)" class="st8" cx="875.1" cy="282.5" rx="2.4" ry="3.5"/>
	
		<ellipse transform="matrix(0.9663 -0.2573 0.2573 0.9663 -39.8853 193.018)" class="st8" cx="717.5" cy="248.9" rx="5.5" ry="3.8"/>
	
		<ellipse transform="matrix(0.9663 -0.2573 0.2573 0.9663 -41.2576 183.8547)" class="st8" cx="681.8" cy="249.5" rx="5.5" ry="3.8"/>
	
		<ellipse transform="matrix(0.9663 -0.2573 0.2573 0.9663 -32.0292 193.6518)" class="st8" cx="723.8" cy="219.2" rx="5.5" ry="3.8"/>
	<ellipse transform="matrix(0.9924 -0.123 0.123 0.9924 -19.8625 91.9923)" class="st8" cx="734.9" cy="206.8" rx="2.4" ry="3.5"/>
	<ellipse transform="matrix(0.9924 -0.123 0.123 0.9924 -17.0856 92.1499)" class="st8" cx="737.5" cy="184.4" rx="2.4" ry="3.5"/>
	<ellipse transform="matrix(0.9924 -0.123 0.123 0.9924 -22.6583 88.0502)" class="st8" cx="701.6" cy="227.5" rx="2.4" ry="3.5"/>
	<ellipse transform="matrix(0.9924 -0.123 0.123 0.9924 -23.3248 90.3202)" class="st8" cx="719.6" cy="234" rx="2.4" ry="3.5"/>
	<ellipse transform="matrix(0.9924 -0.123 0.123 0.9924 -25.7676 87.7649)" class="st8" cx="697.7" cy="252.5" rx="2.4" ry="3.5"/>
	<ellipse transform="matrix(0.9663 -0.2573 0.2573 0.9663 2.7382 244.2019)" class="st8" cx="934.3" cy="111.6" rx="5.5" ry="3.8"/>
	<ellipse transform="matrix(0.9663 -0.2573 0.2573 0.9663 1.3658 235.0386)" class="st8" cx="898.6" cy="112.3" rx="5.5" ry="3.8"/>
	<ellipse transform="matrix(0.9663 -0.2573 0.2573 0.9663 10.5949 244.836)" class="st8" cx="940.7" cy="81.9" rx="5.5" ry="3.8"/>
	<ellipse transform="matrix(0.9924 -0.123 0.123 0.9924 -4.1236 113.6894)" class="st8" cx="918.4" cy="90.2" rx="2.4" ry="3.5"/>
	<ellipse transform="matrix(0.9924 -0.123 0.123 0.9924 -4.7902 115.9594)" class="st8" cx="936.5" cy="96.8" rx="2.4" ry="3.5"/>
	<ellipse transform="matrix(0.9924 -0.123 0.123 0.9924 -7.2329 113.404)" class="st8" cx="914.6" cy="115.3" rx="2.4" ry="3.5"/>
	<path class="st4" d="M707.7,257.6c-5.8,0-9.6-1.5-11.3-4.3c-3.3-5.7,2.2-15.7,16.5-29.7l1.2,1.2c-13.2,13-19,22.8-16.2,27.6
		c1.8,3,7,4.1,15.2,3.1c8.1-1,18.9-3.9,32-8.6c27-9.7,60.8-26.1,95.2-46.2c34.4-20.1,65.4-41.4,87.2-60c4.2-3.6,8-7,11.3-10.2
		c4.3-4.1,8.3-8.6,12-13.3c4.9-6.6,6.5-11.7,4.8-14.8c-2.9-5.1-15.3-4.6-34.9,1.3l-0.5-1.6c21-6.4,33.3-6.5,36.8-0.6
		c2.2,3.7,0.5,9.3-4.9,16.6c-3.7,4.8-7.7,9.4-12.1,13.5c-3.3,3.2-7.1,6.7-11.4,10.3c-21.8,18.7-52.9,40.1-87.4,60.2
		c-34.5,20.1-68.5,36.6-95.5,46.3c-13.2,4.8-24.1,7.7-32.3,8.7C711.4,257.5,709.6,257.6,707.7,257.6z"/>
</g>
</svg>
