<?xml version="1.0" encoding="utf-8"?>
<!-- Generator: Adobe Illustrator 27.0.0, SVG Export Plug-In . SVG Version: 6.00 Build 0)  -->
<svg version="1.1" id="Layer_1" xmlns="http://www.w3.org/2000/svg" xmlns:xlink="http://www.w3.org/1999/xlink" x="0px" y="0px"
	 viewBox="0 0 500 387" style="enable-background:new 0 0 500 387;" xml:space="preserve">
<style type="text/css">
	.st0{fill:#92E3A9;}
	.st1{opacity:0.7;fill:#FFFFFF;enable-background:new    ;}
	.st2{fill:none;stroke:#263238;stroke-linecap:round;stroke-linejoin:round;}
	.st3{fill:#A3A3A3;}
	.st4{fill:#FFFFFF;}
	.st5{fill:#FFFFFF;stroke:#263238;stroke-linecap:round;stroke-linejoin:round;}
	.st6{fill:#263238;stroke:#263238;stroke-linecap:round;stroke-linejoin:round;}
	.st7{fill:none;stroke:#FFFFFF;stroke-width:2;stroke-linecap:round;stroke-linejoin:round;}
	.st8{fill:none;stroke:#FFFFFF;stroke-linecap:round;stroke-linejoin:round;}
	.st9{fill:none;stroke:#263238;stroke-width:2;stroke-linecap:round;stroke-linejoin:round;}
	.st10{fill:none;stroke:#263238;stroke-width:0.5;stroke-linecap:round;stroke-linejoin:round;}
	.st11{fill:#263238;}
	.st12{fill:#92E3A9;stroke:#263238;stroke-linecap:round;stroke-linejoin:round;}
	.st13{fill:none;stroke:#FFFFFF;stroke-width:0.5;stroke-linecap:round;stroke-linejoin:round;}
</style>
<g id="freepik--background-simple--inject-114">
	<path class="st0" d="M455.6,186.6c2-25.3-4.2-51.7-12.4-75.2c-12.2-35-36-70.8-75.9-79.1c-23-4.8-46.5,0.3-66.3,12.3
		c-19,11.5-33.8,26.4-57.2,29.2c-23.6,2.9-47.9,1.7-71.6,1.7C111.1,75.6,61.6,137,74,201s70.8,108.4,120.3,108.4
		c44.6,0,81.2-25.6,123.5-32.5c21-3.4,42,0.6,62.8-4.5c24.1-5.9,46.8-20.1,60.2-40.6C449.9,217.9,454.4,202.5,455.6,186.6z"/>
	<path class="st1" d="M455.6,186.6c2-25.3-4.2-51.7-12.4-75.2c-12.2-35-36-70.8-75.9-79.1c-23-4.8-46.5,0.3-66.3,12.3
		c-19,11.5-33.8,26.4-57.2,29.2c-23.6,2.9-47.9,1.7-71.6,1.7C111.1,75.6,61.6,137,74,201s70.8,108.4,120.3,108.4
		c44.6,0,81.2-25.6,123.5-32.5c21-3.4,42,0.6,62.8-4.5c24.1-5.9,46.8-20.1,60.2-40.6C449.9,217.9,454.4,202.5,455.6,186.6z"/>
</g>
<g id="freepik--Clock--inject-114">
	<circle class="st2" cx="110.4" cy="154.9" r="23.2"/>
	<circle class="st2" cx="110.4" cy="154.9" r="19.3"/>
	<polyline class="st2" points="98.2,154.9 110.4,154.9 110.4,172.6 	"/>
</g>
<g id="freepik--Window--inject-114">
	<polygon class="st3" points="207.8,18.3 204.1,9 143.5,9 143.5,18.3 143.5,48.2 143.5,267.2 380.5,267.2 380.5,18.3 	"/>
	<rect x="146.9" y="24.3" class="st4" width="228.9" height="240.3"/>
	<rect x="146.9" y="24.3" class="st0" width="228.9" height="10"/>
	<path class="st3" d="M306.6,44.7h-83.7c-3.5,0-6.4,2.9-6.4,6.4c0,0,0,0,0,0v34.3l7.6-8h82.6c3.5,0,6.4-2.9,6.4-6.4c0,0,0,0,0,0
		V51.1C313,47.6,310.1,44.7,306.6,44.7L306.6,44.7z"/>
	<circle class="st4" cx="233.6" cy="58.8" r="9"/>
	<path class="st5" d="M238.1,58.2c0,0,0.9-1.3,1.1,0s-1.6,2.8-1.6,2.8L238.1,58.2z"/>
	<path class="st5" d="M229.1,58.2c0,0-0.9-1.3-1.1,0s1.6,2.8,1.6,2.8L229.1,58.2z"/>
	<path class="st5" d="M233.9,52c0,0-3.6-0.3-4.4,2.1c-0.6,2.3-0.6,4.6,0,6.9c0.3,0.7,2.6,4.3,3.2,4.6c0.8,0.3,1.7,0.2,2.5-0.2
		c0.3-0.4,2.6-3.7,2.7-4.9c0.1-1.7,0-3.5-0.1-5.2c-0.1-1.2-0.8-2.4-2-2.8C235.2,52.2,234.6,52,233.9,52z"/>
	<path class="st6" d="M237.8,55.2c-0.1-1.2-0.8-2.4-2-2.8c-0.6-0.2-1.3-0.4-1.9-0.4c0,0-3.6-0.3-4.4,2.1c-0.4,1.4-0.5,2.8-0.4,4.2
		c0.2,0.2,0.8,0.8,0.7,0s-0.2-3.8,0.5-4.4s0.8-1.2,1.9-0.3s0.9,1.6,2,1s1.3-1.7,2.2-1.3s0.6,2.4,0.6,3.3s0,2.7,0.6,1.9
		c0.1-0.2,0.2-0.4,0.3-0.6C237.9,57,237.9,56,237.8,55.2z"/>
	<line class="st7" x1="247.8" y1="52.3" x2="266.4" y2="52.3"/>
	<line class="st8" x1="247.8" y1="58.8" x2="304.8" y2="58.8"/>
	<line class="st8" x1="247.8" y1="64.2" x2="304.8" y2="64.2"/>
	<line class="st8" x1="247.8" y1="70.1" x2="304.8" y2="70.1"/>
	<path class="st3" d="M306.6,179.5h-83.7c-3.5,0-6.4,2.8-6.4,6.4c0,0,0,0,0,0v34.3l7.6-8h82.6c3.5,0,6.4-2.9,6.4-6.4v-19.9
		C313,182.4,310.1,179.5,306.6,179.5C306.6,179.5,306.6,179.5,306.6,179.5z"/>
	<circle class="st4" cx="235.2" cy="192.8" r="9"/>
	<path class="st5" d="M238.1,192.9c0,0,0.9-1.3,1.1,0c0.2,1.3-1.6,2.8-1.6,2.8L238.1,192.9z"/>
	<path class="st5" d="M229.1,192.9c0,0-0.9-1.3-1.1,0c-0.2,1.3,1.6,2.8,1.6,2.8L229.1,192.9z"/>
	<path class="st5" d="M233.9,186.7c0,0-3.6-0.3-4.4,2.1c-0.6,2.3-0.6,4.7,0,6.9c0.3,0.7,2.6,4.3,3.2,4.5c0.8,0.3,1.7,0.2,2.5-0.2
		c0.3-0.4,2.6-3.7,2.7-4.9c0.1-1.7,0-3.5-0.1-5.2c-0.1-1.2-0.8-2.3-2-2.8C235.2,186.9,234.6,186.8,233.9,186.7z"/>
	<path class="st6" d="M237.8,190c-0.1-1.2-0.8-2.3-2-2.8c-0.6-0.2-1.3-0.4-1.9-0.4c0,0-3.6-0.3-4.4,2.1c-0.4,1.4-0.5,2.8-0.4,4.2
		c0.2,0.2,0.8,0.9,0.7,0s-0.2-3.8,0.5-4.4s0.8-1.1,1.9-0.3s0.9,1.6,2,1.1s1.3-1.7,2.2-1.2s0.6,2.4,0.6,3.4s0,2.7,0.6,1.9
		c0.1-0.2,0.2-0.4,0.3-0.6C237.9,191.8,237.9,190.8,237.8,190z"/>
	<line class="st7" x1="247.8" y1="187.1" x2="266.4" y2="187.1"/>
	<line class="st8" x1="247.8" y1="193.6" x2="304.8" y2="193.6"/>
	<line class="st8" x1="247.8" y1="199" x2="304.8" y2="199"/>
	<line class="st8" x1="247.8" y1="204.9" x2="304.8" y2="204.9"/>
	<path class="st3" d="M351,135.1h-83.7c-3.5,0-6.4,2.9-6.4,6.4c0,0,0,0,0,0v19.9c0,3.5,2.9,6.4,6.4,6.4l0,0h82.6l7.5,8v-34.3
		C357.4,138,354.6,135.1,351,135.1C351,135.1,351,135.1,351,135.1z"/>
	<circle class="st4" cx="278" cy="149.2" r="9"/>
	<path class="st5" d="M282.5,148.6c0,0,1-1.2,1.1,0s-1.6,2.8-1.6,2.8L282.5,148.6z"/>
	<path class="st5" d="M273.5,148.6c0,0-0.9-1.2-1.1,0s1.6,2.8,1.6,2.8L273.5,148.6z"/>
	<path class="st5" d="M278.3,142.4c0,0-3.5-0.3-4.4,2.1c-0.6,2.3-0.6,4.7,0,6.9c0.3,0.7,2.5,4.3,3.2,4.6c0.8,0.3,1.7,0.2,2.5-0.2
		c0.3-0.4,2.5-3.7,2.7-4.9c0.1-1.7,0-3.5-0.1-5.2c-0.1-1.2-0.8-2.4-2-2.8C279.6,142.6,279,142.4,278.3,142.4z"/>
	<path class="st6" d="M282.2,145.6c-0.1-1.2-0.8-2.4-2-2.8c-0.6-0.2-1.2-0.4-1.9-0.4c0,0-3.5-0.3-4.4,2.1c-0.4,1.4-0.5,2.8-0.4,4.2
		c0.2,0.2,0.8,0.9,0.7,0.1c-0.1-1-0.2-3.8,0.5-4.4s0.8-1.1,1.9-0.3s0.9,1.6,2,1s1.3-1.7,2.2-1.2s0.6,2.4,0.6,3.4s0,2.7,0.6,1.9
		c0.1-0.2,0.2-0.4,0.3-0.6C282.3,147.5,282.3,146.4,282.2,145.6z"/>
	<path class="st6" d="M274.8,144.3c0.8,1.2,2.1,2,3.5,2.1c1.4,0.3,2.8,0,3.9-0.8c0,0,1.1,0,1.1-1.4s0.4-0.8-1.6-0.8
		S275.3,139.9,274.8,144.3z"/>
	<path class="st5" d="M277.9,149.1h-3.5l0.4,1.2c0.1,0.2,0.3,0.4,0.5,0.4h1.8c0.3,0,0.5-0.2,0.5-0.4L277.9,149.1z"/>
	<path class="st5" d="M281.8,149.1h-3.5l0.4,1.2c0.1,0.2,0.3,0.4,0.5,0.4h1.9c0.3,0,0.5-0.2,0.5-0.4L281.8,149.1z"/>
	<line class="st7" x1="292.3" y1="142.8" x2="310.9" y2="142.8"/>
	<line class="st8" x1="292.3" y1="149.2" x2="349.2" y2="149.2"/>
	<line class="st8" x1="292.3" y1="154.6" x2="349.2" y2="154.6"/>
	<line class="st8" x1="292.3" y1="160.5" x2="349.2" y2="160.5"/>
	<path class="st0" d="M307.8,91.8h-83.7c-3.5,0-6.4,2.9-6.4,6.4v34.3l7.6-8h82.6c3.5,0,6.4-2.9,6.4-6.4c0,0,0,0,0,0V98.2
		C314.2,94.7,311.3,91.8,307.8,91.8C307.8,91.8,307.8,91.8,307.8,91.8z"/>
	<circle class="st4" cx="234.4" cy="108.3" r="9"/>
	<path class="st5" d="M233.2,101.5c-1.7-0.7-3.7,0.1-4.4,1.9c0,0,0,0.1,0,0.1c-1.2,3.2,0.3,7.7,0.3,9.6s1.9,3.4,3.9,3.6
		s4.6,0.5,6.2-2s0.9-7.9,0.3-11S235.4,101.3,233.2,101.5z"/>
	<path class="st5" d="M238.9,107.7c0,0,1-1.3,1.2,0s-1.6,2.8-1.6,2.8L238.9,107.7z"/>
	<path class="st5" d="M229.9,107.7c0,0-0.9-1.3-1.1,0s1.6,2.8,1.6,2.8L229.9,107.7z"/>
	<path class="st5" d="M234.7,101.5c0,0-3.6-0.3-4.4,2.1c-0.6,2.3-0.6,4.7,0,6.9c0.3,0.7,2.6,4.3,3.2,4.6c0.8,0.3,1.7,0.2,2.5-0.2
		c0.3-0.4,2.6-3.7,2.7-4.9c0.1-1.7,0-3.5-0.1-5.2c-0.1-1.2-0.8-2.3-2-2.8C236,101.7,235.3,101.5,234.7,101.5z"/>
	<path class="st5" d="M232,102.4c0,0,5.7,5.3,6.9,5.3s1.3-3.9,0.1-5.7S231.8,99,232,102.4z"/>
	<line class="st9" x1="247.9" y1="98.8" x2="266.5" y2="98.8"/>
	<line class="st2" x1="247.9" y1="105.3" x2="304.9" y2="105.3"/>
	<line class="st2" x1="247.9" y1="110.7" x2="304.9" y2="110.7"/>
	<line class="st2" x1="247.9" y1="116.6" x2="304.9" y2="116.6"/>
	<rect x="171.9" y="43.4" class="st0" width="35.4" height="218.9"/>
	<circle class="st4" cx="188.6" cy="106.4" r="11.3"/>
	<path class="st5" d="M187.2,97.8c0,0-4.1-1.6-5.7,2.5s0.4,9.8,0.4,12.1s2.3,4.3,4.9,4.5s5.9,0.6,7.8-2.5s1.2-9.9,0.4-13.9
		S189.9,97.6,187.2,97.8z"/>
	<path class="st5" d="M194.3,105.7c0,0,1.2-1.6,1.5,0s-2,3.6-2,3.6L194.3,105.7z"/>
	<path class="st5" d="M183,105.7c0,0-1.2-1.6-1.5,0s2,3.6,2,3.6L183,105.7z"/>
	<path class="st5" d="M189.1,97.9c0,0-4.5-0.3-5.5,2.6s-0.3,7.8,0,8.7s3.2,5.4,4,5.7s2.8,0.2,3.1-0.2s3.2-4.7,3.4-6.2
		c0.1-2.2,0.1-4.4-0.1-6.5c-0.1-1.6-1.1-3-2.5-3.6C190.7,98.1,189.9,97.9,189.1,97.9z"/>
	<path class="st5" d="M185.6,99c0,0,7.2,6.6,8.7,6.6s1.6-4.9,0.1-7.2S185.4,94.7,185.6,99z"/>
	<circle class="st4" cx="188.6" cy="68.4" r="11.3"/>
	<path class="st5" d="M194.3,67.6c0,0,1.2-1.6,1.5,0s-2,3.6-2,3.6L194.3,67.6z"/>
	<path class="st5" d="M183,67.6c0,0-1.2-1.6-1.5,0s2,3.6,2,3.6L183,67.6z"/>
	<path class="st5" d="M189.1,59.8c0,0-4.5-0.3-5.5,2.6s-0.3,7.8,0,8.7s3.2,5.4,4,5.8s2.8,0.2,3.1-0.2s3.2-4.7,3.4-6.2
		c0.1-2.2,0.1-4.4-0.1-6.6c-0.1-1.6-1.1-3-2.5-3.6C190.7,60,189.9,59.9,189.1,59.8z"/>
	<path class="st6" d="M194,63.9c-0.1-1.6-1.1-3-2.5-3.6c-0.8-0.3-1.6-0.5-2.4-0.5c0,0-4.5-0.3-5.5,2.6c-0.5,1.7-0.7,3.5-0.5,5.2
		c0.2,0.3,1,1.1,0.9,0c-0.1-1.2-0.3-4.8,0.7-5.6s1.1-1.4,2.4-0.4s1.2,2,2.5,1.3s1.6-2.1,2.8-1.6s0.8,3,0.8,4.2c0,1.2,0,3.4,0.8,2.4
		c0.1-0.2,0.3-0.5,0.4-0.7C194.1,66.2,194,64.9,194,63.9z"/>
	<circle class="st4" cx="188.6" cy="144.3" r="11.3"/>
	<path class="st5" d="M194.3,143.5c0,0,1.2-1.6,1.5,0s-2,3.6-2,3.6L194.3,143.5z"/>
	<path class="st5" d="M183,143.5c0,0-1.2-1.6-1.5,0s2,3.6,2,3.6L183,143.5z"/>
	<path class="st5" d="M189.1,135.7c0,0-4.5-0.4-5.5,2.6s-0.3,7.8,0,8.7s3.2,5.4,4,5.7s2.8,0.2,3.1-0.2s3.2-4.7,3.4-6.2
		c0.1-2.2,0.1-4.4-0.1-6.6c-0.1-1.6-1.1-3-2.5-3.6C190.7,135.9,189.9,135.7,189.1,135.7z"/>
	<path class="st6" d="M194,139.8c-0.1-1.6-1.1-3-2.5-3.6c-0.8-0.3-1.6-0.5-2.4-0.5c0,0-4.5-0.4-5.5,2.6c-0.5,1.7-0.7,3.5-0.5,5.2
		c0.2,0.3,1,1.1,0.9,0.1c-0.1-1.2-0.3-4.8,0.7-5.5s1.1-1.5,2.4-0.4s1.2,2,2.5,1.3s1.6-2.1,2.8-1.6s0.8,3,0.8,4.2s0,3.4,0.8,2.4
		c0.1-0.2,0.3-0.5,0.4-0.7C194.1,142.1,194,140.8,194,139.8z"/>
	<path class="st6" d="M184.5,138.1c2.2,2.9,6.3,3.7,9.4,1.7c0,0,1.4,0,1.4-1.7s0.5-1-2-1S185.2,132.5,184.5,138.1z"/>
	<path class="st5" d="M188.5,144.2H184l0.5,1.5c0.1,0.3,0.4,0.5,0.7,0.5h2.3c0.3,0,0.6-0.2,0.7-0.5L188.5,144.2z"/>
	<path class="st5" d="M193.4,144.2h-4.4l0.5,1.5c0.1,0.3,0.4,0.5,0.7,0.5h2.3c0.3,0,0.6-0.2,0.7-0.5L193.4,144.2z"/>
	<line class="st9" x1="181.4" y1="85.4" x2="196" y2="85.4"/>
	<line class="st9" x1="181.4" y1="122.6" x2="196" y2="122.6"/>
	<line class="st9" x1="181.4" y1="159.9" x2="196" y2="159.9"/>
</g>
<g id="freepik--Plant--inject-114">
	<path class="st0" d="M85,232.8c0,0,0-3.5-4.8-8.3s-8-7.6-8-7.6s-2.4,8,2.1,12.8c3.3,3.4,6.9,6.5,10.8,9.4V232.8z"/>
	<path class="st0" d="M78,254.5c0,0,0-3.5-4.8-8.3s-8-7.6-8-7.6s-2.4,8,2.1,12.8c3.3,3.4,6.9,6.5,10.8,9.4V254.5z"/>
	<path class="st0" d="M84.7,238.7c0,0,0.4-3.5,5.7-7.8s8.7-6.7,8.7-6.7s1.6,8.2-3.4,12.5c-3.7,3-7.6,5.8-11.7,8.2L84.7,238.7z"/>
	<path class="st0" d="M76.2,264.3c0,0,0.7-3.4,6.5-7.1s9.4-5.8,9.4-5.8s0.7,8.3-4.7,12.1c-4,2.6-8.1,5-12.5,6.9L76.2,264.3z"/>
	<path class="st0" d="M77.8,292.2c0,0,0-3.5,4.9-8.3s8-7.6,8-7.6s2.4,8-2.1,12.8c-3.3,3.4-6.9,6.5-10.8,9.4L77.8,292.2z"/>
	<path class="st0" d="M77.7,299c0,0,0.5-3.4-3.6-8.9s-6.8-8.7-6.8-8.7s-3.5,7.5,0.2,13c2.8,3.9,5.9,7.5,9.3,10.8L77.7,299z"/>
	<path class="st0" d="M72.9,319.2c0,0,0-3.5,4.9-8.3s8-7.6,8-7.6s2.4,8-2.1,12.8c-3.3,3.4-6.9,6.6-10.8,9.4L72.9,319.2z"/>
	<path class="st0" d="M76.2,337.5c0,0-0.9-3.4,2.6-9.3s5.8-9.4,5.8-9.4s4.4,7.1,1.2,12.9c-2.3,4.1-5,8.1-8,11.8L76.2,337.5z"/>
	<path class="st10" d="M85.5,231.9c-0.2,3.6-0.7,7.2-1.3,10.8c-1.9,9.9-6.7,16.3-8.6,25.3s3.6,20.5,2.1,32s-6,17.9-4.7,25.6
		s8,28.5,8,28.5"/>
	<line class="st10" x1="84.7" y1="241" x2="89.9" y2="237"/>
	<line class="st10" x1="84.9" y1="236.4" x2="82.7" y2="232.5"/>
	<path class="st10" d="M75.8,267.6c0,0,4.4-3.3,8.9-6.6"/>
	<path class="st10" d="M78,260.7c-2.2-4.2-4.8-8.2-7.8-11.9"/>
	<path class="st10" d="M78,297.1c2.5-4.6,5.7-8.8,9.4-12.5"/>
	<path class="st10" d="M77.1,302c-1.3-3.1-2.9-6.1-4.7-9c-2.6-3.8-2.9-4.3-2.9-4.3"/>
	<path class="st10" d="M72.9,325.6c1.1-2.8,2.4-5.4,3.9-8c1.5-2.4,3.2-4.6,5.1-6.7"/>
	<path class="st10" d="M77.8,343.5c-0.3-2.6,0.2-5.3,1.3-7.7c1.8-3.5,3.9-8.2,4.8-10"/>
	<path class="st0" d="M53.2,279.2c0,0-0.4-2.2,2.1-5.8s4.2-5.6,4.2-5.6s2.4,4.7,0.1,8.3c-1.7,2.5-3.6,4.8-5.7,7L53.2,279.2z"/>
	<path class="st0" d="M60,292c0,0-0.4-2.2,2.2-5.7c2.5-3.6,4.2-5.6,4.2-5.6s2.4,4.7,0.1,8.3c-1.7,2.5-3.6,4.8-5.7,7L60,292z"/>
	<path class="st0" d="M54.1,282.8c0,0-0.6-2.1-4.4-4.2s-6.2-3.3-6.2-3.3s-0.1,5.3,3.5,7.5c2.6,1.5,5.4,2.8,8.2,3.9L54.1,282.8z"/>
	<path class="st0" d="M62.2,298c0,0-0.8-2-4.8-3.8s-6.5-2.6-6.5-2.6s0.5,5.3,4.3,7.1c2.8,1.2,5.6,2.2,8.6,3L62.2,298z"/>
	<path class="st0" d="M64.2,315.6c0,0-0.4-2.2-4-4.7s-5.8-3.9-5.8-3.9s-0.7,5.3,2.7,7.8c2.4,1.8,5,3.4,7.8,4.7L64.2,315.6z"/>
	<path class="st0" d="M65,319.9c0,0-0.7-2.1,1.3-6s3.3-6.2,3.3-6.2s3,4.4,1.3,8.2c-1.3,2.7-2.9,5.3-4.7,7.8L65,319.9z"/>
	<path class="st0" d="M71.1,337.4c0,0,0.2-2.2,3.7-4.9s5.6-4.2,5.6-4.2s1,5.2-2.2,8c-2.3,1.9-4.8,3.6-7.5,5.1L71.1,337.4z"/>
	<path class="st0" d="M70.2,332c0,0-0.4-2.2-4-4.7s-5.8-3.9-5.8-3.9s-0.7,5.3,2.7,7.8c2.4,1.8,5,3.4,7.8,4.7L70.2,332z"/>
	<path class="st0" d="M70.1,343.8c0,0,0.2-2.2-2.6-5.5s-4.7-5.3-4.7-5.3s-2,4.9,0.6,8.2c1.9,2.3,4,4.5,6.3,6.5L70.1,343.8z"/>
	<path class="st10" d="M52.8,278.7c0.5,2.2,1.2,4.4,2,6.6c2.3,6,6,9.5,8.2,14.9s0,13.2,2.1,20.3c2.2,7.1,5.7,10.6,5.7,15.5
		S69,354.7,69,354.7"/>
	<line class="st10" x1="54.3" y1="284.3" x2="50.6" y2="282.3"/>
	<line class="st10" x1="53.7" y1="281.4" x2="54.6" y2="278.7"/>
	<path class="st10" d="M62.8,300c0,0-3.1-1.6-6.3-3.2"/>
	<path class="st10" d="M60.7,295.9c0.9-2.9,2.1-5.7,3.6-8.3"/>
	<path class="st10" d="M64.6,318.7c-2.1-2.6-4.5-4.9-7.2-6.8"/>
	<path class="st10" d="M65.7,321.7c0.5-2.1,1.2-4.2,2-6.2c1.2-2.6,1.4-3,1.4-3"/>
	<path class="st10" d="M70.7,339.8c1.2-1.5,2.5-2.9,4-4.1c0.9-0.7,1.8-1.4,2.6-2.3"/>
	<path class="st10" d="M70.9,336c-1-1.6-2.1-3.1-3.3-4.6c-1.2-1.3-2.5-2.5-3.9-3.6"/>
	<path class="st10" d="M69.8,347.8c-0.1-1.7-0.7-3.3-1.7-4.7c-1.5-2-3.3-4.7-4.1-5.7"/>
	<path class="st11" d="M59,352.3h31.8l0,0v23.3c0,1.7-1.3,3-3,3H62.1c-1.7,0-3-1.3-3-3L59,352.3L59,352.3z"/>
	<path class="st11" d="M90.5,356.5H59c-1.4,0-2.5-1.1-2.5-2.5l0,0c0-1.4,1.1-2.5,2.5-2.5h31.5c1.4,0,2.5,1.1,2.5,2.5v0l0,0
		C93,355.4,91.9,356.5,90.5,356.5z"/>
</g>
<g id="freepik--character-3--inject-114">
	<path class="st12" d="M389.1,240.8H340c-3.6,0-3.8,0.4-3.8,3.8v65.1h56.6v-65.1C392.9,241.3,392.7,240.8,389.1,240.8z"/>
	<rect x="361.7" y="328" class="st11" width="4.5" height="36.7"/>
	<rect x="359" y="335.1" class="st11" width="10" height="30.4"/>
	<rect x="348.1" y="319.8" class="st11" width="31.8" height="10.9"/>
	<circle class="st11" cx="331.3" cy="376.8" r="2.2"/>
	<path class="st11" d="M398.8,376.8c0-1.2-1-2.2-2.2-2.2s-2.2,1-2.2,2.2s1,2.2,2.2,2.2S398.8,378,398.8,376.8L398.8,376.8z"/>
	<polygon class="st11" points="359,365.5 328.9,372.7 328.9,374.8 363.6,372 363.6,365.4 	"/>
	<polygon class="st11" points="369,365.5 399.1,372.7 399.1,374.8 364.3,372 364.3,365.4 	"/>
	<path class="st11" d="M364.1,379L364.1,379c-0.9,0-1.6-0.7-1.6-1.6v-6.7c0-0.9,0.7-1.6,1.6-1.6l0,0c0.9,0,1.6,0.7,1.6,1.6v6.7
		C365.7,378.3,365,379,364.1,379z"/>
	<rect x="361.7" y="365.4" class="st11" width="4.8" height="9.9"/>
	<path class="st12" d="M335.7,304.9h57.6c1.2,0,2.2,1,2.2,2.2v11.5c0,1.2-1,2.2-2.2,2.2h-57.6c-1.2,0-2.2-1-2.2-2.2v-11.5
		C333.4,305.9,334.4,304.9,335.7,304.9z"/>
	<polygon class="st6" points="347.1,283.4 343.4,290.9 353.4,304.6 381.8,304.6 388.5,293.1 385.2,283.4 	"/>
	<path class="st6" d="M343.4,290.9c0,0-5.5,3.5-6.8,9.1c-0.6,2.8,4.9,12.5,8,13.6c3,1,19.8-10.9,19.8-10.9"/>
	<path class="st6" d="M344.7,293.8c0,0-6.5-1-8.1,3.7c-1.1,3.3,0.4,13,0.7,14.1s6.7,55,6.7,55h8.9l3-68"/>
	<path class="st5" d="M343.9,366.6l-1,4.1l-9.7,5.8c0,0,0.3,1.8,1.8,1.8h16.8c1.2,0,2.2-0.9,2.2-2.1c0-0.1,0-0.2,0-0.4l-1.2-9.4
		L343.9,366.6z"/>
	<path class="st5" d="M333.2,376.7c0.1,0.4,0.5,1.7,1.8,1.7h16.8c1,0,1.9-0.7,2.1-1.7H333.2z"/>
	<path class="st2" d="M342.9,370.8c2.4-0.2,4.7,0,7.1,0.5"/>
	<line class="st2" x1="349.5" y1="374.6" x2="346.6" y2="378.2"/>
	<path class="st6" d="M387,290.9c0,0,5.5,3.5,6.8,9.1c0.6,2.8-4.9,12.5-8,13.6c-3,1-19.8-10.9-19.8-10.9"/>
	<path class="st6" d="M385.7,293.8c0,0,6.5-1,8.1,3.7c1.1,3.3-0.4,13-0.7,14.1s-6.7,55-6.7,55h-8.9l-3-68"/>
	<path class="st5" d="M386.5,366.6l1,4.1l9.7,5.8c0,0-0.3,1.8-1.8,1.8h-16.9c-1.2,0-2.1-1-2.1-2.1c0-0.1,0-0.2,0-0.2l1.2-9.4
		L386.5,366.6z"/>
	<path class="st5" d="M397.1,376.7c-0.1,0.4-0.5,1.7-1.8,1.7h-16.8c-1,0-1.9-0.7-2.1-1.7H397.1z"/>
	<path class="st2" d="M387.4,370.8c-2.4-0.2-4.7,0-7.1,0.5"/>
	<line class="st2" x1="380.9" y1="374.6" x2="383.7" y2="378.2"/>
	<polygon class="st5" points="371.5,224.2 370.4,224.8 360.4,224.5 359.4,225.5 359.4,224.8 358.3,224.2 338.4,233.5 347.1,283.4 
		385.2,283.4 391.3,233.5 	"/>
	<path class="st5" d="M357.7,222.5c0,0-4.1,2.8-4.1,3.6s-0.6,10-0.6,10l5.2-1.7l7,6l6.8-5.7l6.3,1.4l-2-10.6l-7.7-5.2L357.7,222.5z"
		/>
	<polygon class="st5" points="391.3,233.5 408.7,263 395.6,264.5 388.7,254.9 	"/>
	<polygon class="st5" points="338.5,233.5 321.2,263 334.3,264.5 344.2,253.4 	"/>
	<polygon class="st5" points="372.6,228.6 365.2,240.4 358,228.6 358,211.4 372.6,211.4 	"/>
	<path class="st5" d="M356.4,206.8c0,0-2.7-0.7-2.4,1.2s1.1,5.4,2.4,6.2l1.4,0.8L356.4,206.8z"/>
	<path class="st5" d="M374.5,206.8c0,0,2.7-0.7,2.4,1.2s-1.1,5.4-2.4,6.2l-1.4,0.8L374.5,206.8z"/>
	<path class="st5" d="M375.8,203.6c-0.2-5.7-4.9-10.2-10.6-10c-5.4,0.2-9.8,4.5-10,10c0,1.1,0.2,2.1,0.5,3.1l2.6,12.3l4.8,6.7h4.6
		l4.6-5.9l2.8-12.9C375.6,206,375.8,204.8,375.8,203.6z"/>
	<path class="st6" d="M373.6,202.8c-0.6,1.3-1,2.7-1.1,4.1c0.2,1.7,0.7,3.3,1.4,4.9c0,0,3.2-6.8,3-9.2S373.3,202,373.6,202.8z"/>
	<path class="st6" d="M356.5,211.2c0,0,0-0.4,0.1-1.1c0.1-1.8,0.6-5.1,1.6-5.7c1.4-0.8,1.2-5.1,1.2-5.1s-1.9,2.1,4.6,4.3
		s11.8,1.3,15.3-3.3s0.3-7.9-0.3-6.2s-1.6,3.8-3.5,2.2s-4.9-4.9-10.3-4.9s-7.9,4.9-7.9,4.9c-1.8,0.9-2.9,2.6-3,4.6
		C354.3,204.2,356.5,211.2,356.5,211.2z"/>
	<path class="st13" d="M375.6,202.7c-3.8,0.2-7.1-2.4-10.4-4.7s-5.6,0-5.6,0c0.5-2.5,2.7-4.4,5.3-4.6c4.5-0.3,6,5.9,10.2,6.5"/>
	<path class="st5" d="M364.8,211h-9.1l1,3c0.2,0.6,0.7,1,1.3,1h4.7c0.6,0,1.2-0.4,1.4-1.1L364.8,211z"/>
	<path class="st5" d="M374.8,211h-9.1l1,3c0.2,0.6,0.7,1,1.3,1h4.7c0.6,0,1.2-0.4,1.4-1.1L374.8,211z"/>
	<line class="st2" x1="355.7" y1="211" x2="355.2" y2="206.6"/>
	<line class="st2" x1="374.8" y1="211" x2="375.9" y2="206.8"/>
	<line class="st2" x1="364.8" y1="211" x2="365.8" y2="211"/>
	<line class="st2" x1="364.5" y1="212.4" x2="366.1" y2="212.4"/>
	<path class="st2" d="M367.1,218.2c0,0-0.7,1-1.5,1s-1.5-1-1.5-1"/>
	<path class="st5" d="M374.6,260.9c0,0-3.8-3.3-4.8-3s-2.1,4.5-1.3,5.5s2.6-2.6,2.6-2.6l3.4,4.7L374.6,260.9z"/>
	<path class="st5" d="M374,262.4l-3.5,1.3c-0.8,1-1.8,1.8-2.9,2.4c-1.6,0.7-2.4,1.5-0.6,2.2s4.3-2,4.3-2l4,0.4
		c0.9-1.5,0.4-3.4-1.1-4.2C374.1,262.4,374,262.4,374,262.4z"/>
	<path class="st5" d="M377.4,269.1c1.1,0.6,2.3,0.8,3.5,0.6c1.9-0.4,5.1-4.4,5.1-4.4l-1.6-2.9l-6-0.1L377.4,269.1z"/>
	<path class="st5" d="M374.2,259.4c0,0-2.2,5.8-2,6.8s4,3.2,5.2,2.9c0.8-0.2,2.4-2.2,3.5-3.6c0.5-0.7,0.4-1.7-0.3-2.2
		C378.7,261.8,375,259.2,374.2,259.4z"/>
	<line class="st2" x1="374" y1="267.6" x2="376.8" y2="260.9"/>
	<line class="st2" x1="379.6" y1="263" x2="375.8" y2="268.7"/>
	<path class="st5" d="M381.8,262.1L381.8,262.1c0.9,2.4,1.2,5,0.9,7.5l0,0.3l23.5,2c2.2-0.3,3.9-2.3,3.9-4.5v-1.7
		c0-2.5-2.1-4.4-4.6-4.4c0,0-0.1,0-0.1,0L381.8,262.1z"/>
	<path class="st5" d="M348.4,260.9c0,0,3.8-3.3,4.7-3s2.1,4.5,1.3,5.5s-2.6-2.6-2.6-2.6l-3.4,4.7L348.4,260.9z"/>
	<path class="st5" d="M349,262.4l3.5,1.3c0.8,1,1.8,1.8,2.9,2.4c1.6,0.7,2.4,1.5,0.6,2.2s-4.3-2-4.3-2l-4,0.4
		c-0.9-1.5-0.4-3.4,1.1-4.2C349,262.4,349,262.4,349,262.4z"/>
	<path class="st5" d="M345.6,269.1c-1.1,0.6-2.3,0.8-3.5,0.6c-1.9-0.4-5.1-4.4-5.1-4.4l1.6-2.9l6-0.1L345.6,269.1z"/>
	<path class="st5" d="M348.9,259.4c0,0,2.2,5.8,1.9,6.8s-4,3.2-5.2,2.9c-0.8-0.2-2.4-2.2-3.4-3.6c-0.5-0.7-0.4-1.7,0.3-2.2
		C344.4,261.8,348,259.2,348.9,259.4z"/>
	<line class="st2" x1="349" y1="267.6" x2="346.3" y2="260.9"/>
	<line class="st2" x1="343.4" y1="263" x2="347.2" y2="268.7"/>
	<path class="st5" d="M341.2,262.1L341.2,262.1c-0.7,2.4-0.9,5-0.6,7.5v0.3l-17.7,2c-1.7-0.3-2.9-2.2-2.9-4.5v-1.7
		c0-2.5,1.6-4.5,3.5-4.4L341.2,262.1z"/>
</g>
<g id="freepik--device-3--inject-114">
	<rect x="329.5" y="266.4" class="st5" width="53" height="1.9"/>
	<rect x="385.6" y="266.6" class="st5" width="26.4" height="1.5"/>
	<rect x="371.4" y="216.4" class="st5" width="61.6" height="39.7"/>
	<rect x="373.2" y="216.4" class="st6" width="59.9" height="39.7"/>
	<rect x="397.8" y="234.7" class="st5" width="15" height="34"/>
	<rect x="399.2" y="234.7" class="st6" width="15" height="34"/>
	<polyline class="st8" points="398.2,235.1 414.5,235.1 414.5,258.4 	"/>
</g>
<g id="freepik--device-2--inject-114">
	<rect x="266.8" y="256.6" class="st5" width="11.1" height="12.9"/>
	<rect x="245.9" y="219.4" class="st6" width="51.5" height="38.6"/>
	<rect x="248.6" y="221.5" class="st5" width="46.1" height="34.6"/>
</g>
<g id="freepik--character-2--inject-114">
	<polygon class="st5" points="243.9,318.3 254.4,365.1 259.2,363.8 258.9,316.3 	"/>
	<polygon class="st5" points="254.4,365.1 248.1,376.6 246.8,378.9 253.8,378.9 259.2,371.2 259.2,378.6 261.6,378.6 261.6,366.2 
		259.2,363.8 	"/>
	<polygon class="st5" points="283.7,318.3 273.1,365.1 268.3,363.8 268.7,316.3 	"/>
	<polygon class="st5" points="273.1,365.1 279.5,376.6 280.8,378.9 273.8,378.9 268.3,371.2 268.3,378.6 266,378.6 266,366.2 
		268.3,363.8 	"/>
	<rect x="265.8" y="260.3" class="st5" width="11.2" height="13"/>
	<path class="st6" d="M262.6,302.7c0,7.4-6,13.5-13.5,13.5c-7.4,0-13.5-6-13.5-13.5c0-7.4,6-13.5,13.5-13.5l0,0
		C256.5,289.3,262.6,295.3,262.6,302.7z"/>
	<path class="st6" d="M263.8,302.7c0,7.4,6,13.5,13.5,13.5c7.4,0,13.5-6,13.5-13.5c0-7.4-6-13.5-13.5-13.5c0,0,0,0,0,0
		C269.9,289.3,263.8,295.3,263.8,302.7z"/>
	<path class="st5" d="M258.6,219.5l0.7,7.9l7.6,0.7l0.3-7.6C267.2,220.5,261,216.5,258.6,219.5z"/>
	<path class="st5" d="M253.2,228.1c1.5-1.5,3.6-2.4,5.7-2.5c4-0.4,9.9-0.1,12.1,1.3c1.4,1.1,2.6,2.4,3.5,3.9l-24.1-0.4L253.2,228.1z
		"/>
	<path class="st5" d="M288.1,235.6c-2.6-2.9-5.4-5.1-8.4-5.3c-9.2-0.8-19.1-2.2-28.5-0.2c-3.8,0.8-8,2-11,4.6s-4,6.5-6.1,9.8
		l-6.8,10.8c-2.8,4.5-5.7,9-8.5,13.5c-4.2,6.8-1.2,3.7,3.4,5.5s7.3-0.9,7.3-0.9l10.8-16.4l3.5,31.5h37.8l4-34.6
		c1.3,2.3,11.7,20.8,15.4,21.1c4,0.4,6.1-0.7,7.6-4.7c1.6-4.4-7.6-15-9.8-18.3C296.2,248.1,292.5,240.7,288.1,235.6z"/>
	<path class="st5" d="M288.8,233.2l12.4,18.4l-16.8,8.2l-39.9,0.5l-15.7-13.2l10.4-14.9c0,0,9.4-4.7,25-5S288.8,233.2,288.8,233.2z"
		/>
	<path class="st6" d="M243.7,288.4l-2.9,11.5c-0.5,2-0.3,4.1,0.7,6l5.4,10.4h32.8l5.2-9.7c1.4-2.5,1.5-5.6,0.5-8.2l-3.9-9.8H243.7z"
		/>
	<rect x="260.8" y="308.9" class="st6" width="6.9" height="26.2"/>
	<rect x="259" y="331" class="st6" width="10.3" height="35.5"/>
	<polygon class="st6" points="269.1,365.6 264.3,364.3 264.3,364.1 263.9,364.2 263.5,364.1 263.5,364.3 258.7,365.6 226,371.7 
		226,374.1 263.5,374.1 264.3,374.1 301.8,374.1 301.8,371.7 	"/>
	<circle class="st6" cx="228.9" cy="375.6" r="2.3"/>
	<path class="st6" d="M266.2,375.6c0,1.3-1,2.3-2.3,2.3c-1.3,0-2.3-1-2.3-2.3c0-1.3,1-2.3,2.3-2.3
		C265.2,373.3,266.2,374.4,266.2,375.6C266.2,375.6,266.2,375.6,266.2,375.6z"/>
	<path class="st6" d="M301.5,375.6c0,1.3-1,2.3-2.3,2.3c-1.3,0-2.3-1-2.3-2.3c0-1.3,1-2.3,2.3-2.3c0,0,0,0,0,0
		C300.4,373.3,301.5,374.4,301.5,375.6C301.5,375.6,301.5,375.6,301.5,375.6z"/>
	<path class="st12" d="M285.2,317.2h-42c-4.9,0-8.9-4-8.9-8.9c0,0,0,0,0,0l5-62.8c0-4.1,3.3-7.4,7.4-7.4h35c4.1,0,7.4,3.3,7.4,7.4
		c0,0,0,0,0,0l5,62.8C294.1,313.2,290.1,317.2,285.2,317.2C285.2,317.2,285.2,317.2,285.2,317.2z"/>
	<path class="st12" d="M285.2,320.5h-42c-4.9,0-8.9-4-8.9-8.9c0,0,0,0,0,0l5-62.8c0-4.1,3.3-7.4,7.4-7.4h35c4.1,0,7.4,3.3,7.4,7.4
		c0,0,0,0,0,0l5,62.8C294.1,316.5,290.1,320.5,285.2,320.5C285.2,320.5,285.2,320.5,285.2,320.5z"/>
	<path class="st6" d="M262.8,223.9L262.8,223.9c-3.8,0-7-2.7-7.7-6.4c-0.2-1.3-0.4-2.6-0.8-3.8l-1.7-9.1c0-5.6,4.5-10.2,10.2-10.2
		l0,0c5.6,0,10.2,4.5,10.2,10.2l0,0l-1.7,9.1c-0.3,1.3-0.5,2.5-0.8,3.8C269.8,221.2,266.6,223.9,262.8,223.9z"/>
	<path class="st5" d="M256.5,196.4c-2.9,1.2-4.9,3.9-5.1,7c-0.4,5.3,1.2,11.1,1.5,14.9s-0.9,6.8-4.2,11.9s-1.2,12.7,6.6,16.9
		s18.4,1.6,21.8-2.7c6.5-8.2-1.9-19.4-3-25.2s1.5-13.4-1.6-19.2s-7.3-7.7-10.9-7.7S256.5,196.4,256.5,196.4z"/>
	<path class="st2" d="M272.8,213.1c0,0-1.6,10.7,0.8,19s-1.4,15.9-10.5,16.2s-11.3-11.5-6.3-11.8c4.9-0.3,5,5,3.9,5.2"/>
	<path class="st2" d="M256.5,196.4c0,0,4.3,3,4.6,7.4"/>
</g>
<g id="freepik--device-1--inject-114">
	<rect x="186.4" y="255.6" class="st5" width="12" height="13.9"/>
	<rect x="163.8" y="215.3" class="st6" width="55.7" height="41.8"/>
	<rect x="166.7" y="217.5" class="st5" width="49.9" height="37.4"/>
	<rect x="154.7" y="266.8" class="st5" width="52.2" height="2.3"/>
</g>
<g id="freepik--Desk--inject-114">
	<polygon class="st5" points="88.5,378.6 85.8,378.6 83.8,271.6 90.5,271.6 	"/>
	<polygon class="st6" points="111.7,378.6 109,378.6 107,271.6 113.7,271.6 	"/>
	<polygon class="st6" points="280.7,378.6 277.9,378.6 275.9,271.6 282.7,271.6 	"/>
	<polygon class="st6" points="310.5,378.6 307.7,378.6 305.8,271.6 312.5,271.6 	"/>
	<polygon class="st6" points="302,378.6 299.3,378.6 297.3,271.6 304,271.6 	"/>
	<polygon class="st6" points="408.7,378.6 405.9,378.6 403.9,271.6 410.6,271.6 	"/>
	<polygon class="st6" points="140.6,378.6 137.8,378.6 135.8,271.6 142.6,271.6 	"/>
	<polygon class="st6" points="161.4,378.6 158.7,378.6 156.7,271.6 163.4,271.6 	"/>
	<polygon class="st6" points="415.5,378.6 412.7,378.6 410.7,271.6 417.4,271.6 	"/>
	<polygon class="st6" points="425.4,378.6 422.6,378.6 420.6,271.6 427.4,271.6 	"/>
	<polygon class="st5" points="269.8,378.6 267,378.6 265,271.6 271.8,271.6 	"/>
	<polygon class="st5" points="435.7,378.6 433,378.6 431,271.6 437.7,271.6 	"/>
	<rect x="81.3" y="268.4" class="st5" width="362.2" height="27.7"/>
	<rect x="81.3" y="268.4" class="st6" width="362.2" height="7"/>
	<rect x="78.8" y="268.4" class="st5" width="367.3" height="3.8"/>
</g>
<g id="freepik--character-1--inject-114">
	<path class="st5" d="M119.6,365.5l-8.5,10.8c0,0-1.4,1.7,1.1,2s15.3,0,15.3,0l-0.4-10.6L119.6,365.5z"/>
	<path class="st6" d="M118.8,300.9l-0.5,66.1c0,1.7,1.4,3.2,3.1,3.2c0,0,0,0,0,0h2.5c1.6,0,2.9-1.1,3.1-2.7l9.5-60.1L118.8,300.9z"
		/>
	
		<ellipse transform="matrix(0.2312 -0.9729 0.9729 0.2312 -190.3826 360.9664)" class="st6" cx="133.2" cy="301" rx="14.4" ry="14.4"/>
	<path class="st5" d="M177,365.5l8.5,10.8c0,0,1.4,1.7-1.1,2s-15.3,0-15.3,0l0.4-11.5L177,365.5z"/>
	<path class="st6" d="M177.7,300.9l0.5,66.1c0,1.7-1.4,3.2-3.1,3.2c0,0,0,0,0,0h-2.5c-1.6,0-2.9-1.1-3.1-2.7l-9.5-60.1L177.7,300.9z
		"/>
	
		<ellipse transform="matrix(0.7071 -0.7071 0.7071 0.7071 -164.9368 203.6419)" class="st6" cx="163.3" cy="300.9" rx="14.4" ry="14.4"/>
	<path class="st5" d="M143.4,211.9l0.7,8.5l8.1,0.7l0.4-8.1C152.6,213,145.9,208.8,143.4,211.9z"/>
	<path class="st5" d="M139.3,209.7L139.3,209.7c-0.9,0.1-1.8-0.6-1.9-1.5l-0.5-4.5c-0.1-0.9,0.6-1.8,1.5-1.9c0,0,0,0,0,0l0,0
		c0.9-0.1,1.8,0.6,1.9,1.5l0.5,4.5C140.9,208.8,140.3,209.6,139.3,209.7C139.3,209.7,139.3,209.7,139.3,209.7z"/>
	<path class="st5" d="M156.5,209.1L156.5,209.1c-0.9-0.1-1.6-0.9-1.5-1.8l0.4-4.5c0.1-0.9,0.9-1.6,1.8-1.5c0,0,0,0,0,0l0,0
		c0.9,0.1,1.6,0.9,1.5,1.8c0,0,0,0,0,0l-0.4,4.5C158.3,208.5,157.4,209.2,156.5,209.1C156.5,209.2,156.5,209.2,156.5,209.1z"/>
	<path class="st6" d="M147.8,216.6L147.8,216.6c-4,0-7.5-2.9-8.2-6.9c-0.2-1.4-0.4-2.7-0.8-4.1l-1.8-9.8c0-6,4.9-10.9,10.8-10.9
		c0,0,0,0,0,0l0,0c6,0,10.8,4.9,10.8,10.9l-1.8,9.8c-0.4,1.3-0.6,2.7-0.8,4.1C155.3,213.7,151.9,216.6,147.8,216.6z"/>
	<path class="st5" d="M135.8,221.4c1.6-1.6,3.8-2.6,6.1-2.7c4.2-0.4,11.2-1.4,13.5,0.2c2.4,1.9,4.8,3.9,7,6.1l-29.6-1.1L135.8,221.4
		z"/>
	<path class="st6" d="M121.8,225.3l-21,39.3c0,0-1.3,3.9,3.6,5.9s7.8-1,7.8-1l12.3-18.8L121.8,225.3z"/>
	<path class="st6" d="M171.2,224.1c0,0,27.1,37.8,25.6,42.1s-3.9,5.4-8.1,5S172,248.4,172,248.4L171.2,224.1z"/>
	<path class="st6" d="M168.9,223.7c0,0-16.9-1.6-26.4-1.6s-20.6,3.2-20.6,3.2l5.6,60.3h40.4l3.3-61.5L168.9,223.7z"/>
	<path class="st6" d="M127.4,285.6l-3,12.2c-0.5,2.1-0.3,4.4,0.8,6.4l5.7,11.1H166l5.5-10.3c1.5-2.7,1.6-5.9,0.5-8.8l-4.1-10.5
		L127.4,285.6z"/>
	<rect x="145.7" y="307.5" class="st6" width="7.3" height="28"/>
	<rect x="143.8" y="331.1" class="st6" width="11.1" height="35.4"/>
	<polygon class="st6" points="154.6,365.6 149.5,364.2 149.5,363.9 149,364.1 148.6,363.9 148.6,364.2 143.4,365.6 108.5,372.1 
		108.5,374.6 148.6,374.6 149.5,374.6 189.5,374.6 189.5,372.1 	"/>
	<circle class="st6" cx="111.6" cy="376.3" r="2.4"/>
	<path class="st6" d="M151.5,376.3c0,1.3-1.1,2.4-2.4,2.4s-2.4-1.1-2.4-2.4s1.1-2.4,2.4-2.4S151.5,374.9,151.5,376.3L151.5,376.3z"
		/>
	<path class="st6" d="M189.2,376.3c0,1.4-1.1,2.5-2.4,2.5c-1.4,0-2.5-1.1-2.5-2.4s1.1-2.5,2.4-2.5c0,0,0,0,0,0
		C188.1,373.8,189.2,374.9,189.2,376.3z"/>
	<path class="st12" d="M114,280.7h7.2l0,0v31.4l0,0H121c-3.9,0-7-3.1-7-7L114,280.7L114,280.7z"/>
	<rect x="109.8" y="274.2" class="st12" width="11.4" height="5.9"/>
	<path class="st12" d="M177.7,312.1L177.7,312.1c4,0,7.3-3.2,7.3-7.2c0,0,0,0,0-0.1v-24.2h-7.3V312.1z"/>
	<rect x="177.7" y="274.2" class="st12" width="11.4" height="5.9"/>
	<path class="st12" d="M171.8,316.4h-44.9c-5.3,0-9.5-4.2-9.5-9.5c0,0,0,0,0,0l5.3-67.2c0-4.4,3.6-7.9,7.9-7.9h37.4
		c4.4,0,7.9,3.5,7.9,7.9c0,0,0,0,0,0l5.3,67.2C181.3,312.1,177.1,316.4,171.8,316.4C171.8,316.4,171.8,316.4,171.8,316.4z"/>
	<path class="st12" d="M171.8,319.9h-44.9c-5.3,0-9.5-4.2-9.5-9.5c0,0,0,0,0,0l5.3-67.2c0-4.4,3.6-7.9,7.9-7.9h37.4
		c4.4,0,7.9,3.5,7.9,7.9l5.3,67.2C181.3,315.7,177.1,319.9,171.8,319.9L171.8,319.9z"/>
</g>
<g id="freepik--Floor--inject-114">
	<line class="st2" x1="44.9" y1="378.7" x2="452.6" y2="378.7"/>
</g>
</svg>
